<svg id="Layer_1" data-name="Layer 1" xmlns="http://www.w3.org/2000/svg" viewBox="0 0 147.29 168.74"><defs><style>.cls-1{font-size:14px;font-family:Arial-BoldMT, Arial;font-weight:700;}.cls-1,.cls-3{fill:#eb5b62;}.cls-2,.cls-4{fill:#fff;}.cls-2{stroke:#fff;stroke-miterlimit:10;}</style></defs><text class="cls-1" transform="translate(22.7 165.42)">ABSTRACTION</text><path class="cls-2" d="M55.77,62.92H49.08V37.7a23.12,23.12,0,0,1-8.65,5.07V36.7a19.45,19.45,0,0,0,5.7-3.25,12.41,12.41,0,0,0,4.21-5.59h5.43Z"/><path class="cls-2" d="M83.79,48.42v4.8H65.67a12.51,12.51,0,0,1,1.77-5.16,34.38,34.38,0,0,1,5.81-6.47,37.2,37.2,0,0,0,4.29-4.41A5.71,5.71,0,0,0,78.61,34a3.58,3.58,0,0,0-.93-2.65,3.48,3.48,0,0,0-2.57-.93,3.41,3.41,0,0,0-2.57,1,5,5,0,0,0-1.11,3.24l-5.15-.52q.47-4.26,2.89-6.12a9.69,9.69,0,0,1,6.07-1.86,8.79,8.79,0,0,1,6.27,2.15,7.07,7.07,0,0,1,2.28,5.36,9.37,9.37,0,0,1-.65,3.46,14.31,14.31,0,0,1-2.07,3.45A32.63,32.63,0,0,1,77.69,44q-2.46,2.25-3.1,3a8.53,8.53,0,0,0-1.06,1.44Z"/><path class="cls-2" d="M95.5,78.88l7.44-.9a7,7,0,0,0,1.91,4.35,5.25,5.25,0,0,0,3.78,1.5,5.18,5.18,0,0,0,4-1.8,7,7,0,0,0,1.63-4.87,6.51,6.51,0,0,0-1.56-4.59,5,5,0,0,0-3.8-1.7,13.15,13.15,0,0,0-3.53.58l.85-6.26A6.76,6.76,0,0,0,111,63.83,4.83,4.83,0,0,0,112.62,60a4.15,4.15,0,0,0-4.4-4.43A4.63,4.63,0,0,0,104.85,57a6.46,6.46,0,0,0-1.69,4l-7.09-1.21a16.07,16.07,0,0,1,2.23-5.81,10,10,0,0,1,4.16-3.41,14,14,0,0,1,6-1.25,11.9,11.9,0,0,1,9.08,3.61,9.41,9.41,0,0,1,2.82,6.67q0,5.28-5.77,8.42a9.39,9.39,0,0,1,5.51,3.31,9.61,9.61,0,0,1,2.06,6.21,12,12,0,0,1-3.85,9,14.38,14.38,0,0,1-18.62.58A12.26,12.26,0,0,1,95.5,78.88Z"/><path class="cls-2" d="M71.24,90.21V86.1H62.9V82.68l8.84-12.94H75V82.67h2.53V86.1H75v4.11Zm0-7.54v-7l-4.68,7Z"/><path class="cls-2" d="M25.51,88.91l4.38-.45A3.79,3.79,0,0,0,31,90.82a3,3,0,0,0,4.47-.25,5.16,5.16,0,0,0,1-3.38,4.61,4.61,0,0,0-1-3.18A3.17,3.17,0,0,0,33,83a4.5,4.5,0,0,0-3.4,1.68L26,84.11l2.26-12H39.94v4.13h-8.3L31,80.18a6.73,6.73,0,0,1,8,1.39,7.74,7.74,0,0,1,2,5.54,8.26,8.26,0,0,1-1.64,5.06,7.3,7.3,0,0,1-6.23,3,7.78,7.78,0,0,1-5.19-1.7A7.06,7.06,0,0,1,25.51,88.91Z"/><path class="cls-2" d="M93.9,101.54l-4.72.52a3.38,3.38,0,0,0-.9-2.15,2.61,2.61,0,0,0-1.88-.69,3.19,3.19,0,0,0-2.61,1.38q-1.07,1.4-1.34,5.77A5.69,5.69,0,0,1,87,104.22a6.93,6.93,0,0,1,5.22,2.32,8.43,8.43,0,0,1,2.17,6,8.61,8.61,0,0,1-2.28,6.25,8.35,8.35,0,0,1-12.2-.63q-2.47-3-2.47-9.8,0-7,2.58-10.06a8.31,8.31,0,0,1,6.7-3.09,7.12,7.12,0,0,1,4.79,1.62A7.64,7.64,0,0,1,93.9,101.54Zm-11,10.61A5.56,5.56,0,0,0,84,115.82a3.22,3.22,0,0,0,2.5,1.29,2.82,2.82,0,0,0,2.25-1.06,5.32,5.32,0,0,0,.9-3.46,5.57,5.57,0,0,0-1-3.63,3.12,3.12,0,0,0-4.8,0A4.79,4.79,0,0,0,82.86,112.15Z"/><g id="g3642"><circle id="path3342-07-7-9-4-3-7" class="cls-3" cx="73.58" cy="73.58" r="73.7"/><g id="g5546"><g id="g5490"><g id="g5492"><path id="path5494" class="cls-4" d="M38.84,100.58A11.52,11.52,0,1,0,47,120.26a11.52,11.52,0,0,0-8.12-19.68Z"/><path id="path5496" class="cls-4" d="M36.28,76.27a12.32,12.32,0,0,0-3.76-9,12.32,12.32,0,0,0-9-3.76,12.28,12.28,0,0,0-9,3.76,12.74,12.74,0,0,0,0,18.07,12.28,12.28,0,0,0,9,3.76,12.32,12.32,0,0,0,9-3.76A12.3,12.3,0,0,0,36.28,76.27Z"/><path id="path5498" class="cls-4" d="M110.5,46.84A6.39,6.39,0,0,0,115,35.92a6.39,6.39,0,1,0-9,9A6.17,6.17,0,0,0,110.5,46.84Z"/><path id="path5500" class="cls-4" d="M38.84,26.36A14.07,14.07,0,0,0,24.76,40.44,14,14,0,0,0,38.84,54.51,14,14,0,0,0,52.91,40.44,14,14,0,0,0,38.84,26.36Z"/><path id="path5502" class="cls-4" d="M131.29,70.83a7.71,7.71,0,1,0,2.24,5.44A7.38,7.38,0,0,0,131.29,70.83Z"/><path id="path5504" class="cls-4" d="M110.5,103.14a9,9,0,1,0,6.31,2.64A8.61,8.61,0,0,0,110.5,103.14Z"/><path id="path5506" class="cls-4" d="M74.67,117.21a10.24,10.24,0,1,0,7.23,3A9.86,9.86,0,0,0,74.67,117.21Z"/><path id="path5508" class="cls-4" d="M74.67,9.73A14.81,14.81,0,0,0,63.79,14.2a14.82,14.82,0,0,0-4.48,10.88A14.8,14.8,0,0,0,63.79,36a15.44,15.44,0,0,0,21.75,0A14.8,14.8,0,0,0,90,25.08,14.82,14.82,0,0,0,85.54,14.2,14.81,14.81,0,0,0,74.67,9.73Z"/></g></g></g></g></svg>