<svg id="Layer_1" data-name="Layer 1" xmlns="http://www.w3.org/2000/svg" viewBox="0 0 147.29 167.36"><defs><style>.cls-1{font-size:14px;font-family:Arial-BoldMT, Arial;font-weight:700;}.cls-1,.cls-4{fill:#009c9a;}.cls-2{letter-spacing:-0.07em;}.cls-3{letter-spacing:-0.02em;}.cls-5,.cls-6,.cls-7{fill:#fff;stroke:#fff;stroke-miterlimit:10;}.cls-5{stroke-width:0.35px;}.cls-6{stroke-width:0.32px;}.cls-7{stroke-width:0.54px;}</style></defs><text class="cls-1" transform="translate(22.82 165.42)">ADAP<tspan class="cls-2" x="39.67" y="0">T</tspan><tspan x="47.18" y="0">ABILIT</tspan><tspan class="cls-3" x="92.29" y="0">Y</tspan></text><circle class="cls-4" cx="73.64" cy="73.64" r="73.64"/><path class="cls-5" d="M59.4,67.93h0l-1.21-1c-1.29-1.08-1.3-2.08,0-3.16.58-.48,1.13-1,1.73-1.46a1.62,1.62,0,0,0,.57-2.07c-.53-1.29-1.08-2.56-1.64-3.83a1.59,1.59,0,0,0-1.83-1c-.92.11-1.84.22-2.76.3a1.78,1.78,0,0,1-1.82-1.73,27.26,27.26,0,0,0,.15-3.12,1.92,1.92,0,0,0-.79-1.38,41.67,41.67,0,0,0-4.08-1.69,1.47,1.47,0,0,0-1.78.54c-.6.73-1.23,1.46-1.84,2.18a1.76,1.76,0,0,1-2.62,0c-.62-.72-1.24-1.45-1.85-2.18a1.42,1.42,0,0,0-1.72-.48q-2.13.86-4.22,1.8a1.41,1.41,0,0,0-.82,1.58c.09.86.19,1.73.27,2.59a1.74,1.74,0,0,1-2,2.1c-.87,0-1.73-.1-2.6-.17a1.5,1.5,0,0,0-1.68.95c-.56,1.33-1.09,2.67-1.6,4a1.44,1.44,0,0,0,.51,1.71l1.79,1.51c1.38,1.17,1.37,2.19,0,3.36l-1.73,1.46a1.42,1.42,0,0,0-.48,1.71c.55,1.4,1.13,2.78,1.74,4.16a1.51,1.51,0,0,0,1.71.9c.74-.08,1.5-.14,2.24-.23,1.66-.22,2.44.48,2.35,2.12,0,.78-.08,1.56-.16,2.34a1.6,1.6,0,0,0,1,1.82c1.28.54,2.57,1.06,3.86,1.55a1.52,1.52,0,0,0,1.86-.53c.6-.74,1.22-1.47,1.84-2.19a1.75,1.75,0,0,1,2.56,0c.63.71,1.24,1.45,1.86,2.18A1.54,1.54,0,0,0,48,83c1-.38,2-.74,3-1.18,2-.91,2.12-1.14,1.83-3.33,0-.36-.1-.73-.14-1.09l-.28-1.22,1-1.08H56.9a2,2,0,0,0,2.43-1.67h0a10.35,10.35,0,0,0,1-3.54A2.08,2.08,0,0,0,59.4,67.93ZM58,71.46c-.14.27-.28.52-.39.79-.42,1-.7,1.14-1.78.9-.11,0-.22-.07-.33-.1-1.42-.32-2-.53-3.77,1-.18.28-.55.45-.73.73a2.25,2.25,0,0,0-.48,1.13,24.15,24.15,0,0,0,.27,2.94c.07.54,0,.88-.57,1.08s-1.34.54-2,.85a.8.8,0,0,1-1.11-.31c-.6-.75-1.21-1.47-1.87-2.17a1.53,1.53,0,0,0-.85-.53c-1.74-.06-3.42-.22-4.64,1.63s-1.39,1.71-3.48.86c-.75-.31-1.11-.65-.95-1.52a14,14,0,0,0,.15-2.43,2,2,0,0,0-.16-1,4.28,4.28,0,0,0-4.12-2.18c-2.67.29-2.66.29-3.61-2.29a.89.89,0,0,1,.3-1.19,27.29,27.29,0,0,0,2.23-1.93,2,2,0,0,0,.49-1.13,10,10,0,0,0,0-2,1.89,1.89,0,0,0-.39-1,8,8,0,0,0-1.09-1c-2-1.66-2-1.66-.85-4,0,0,0-.13.08-.15.28-.17.57-.47.86-.47,1,0,2,.11,3,.14a1.41,1.41,0,0,0,.89-.2c1.18-1.17,2.74-2.19,2.07-4.26a2,2,0,0,1,0-.35c-.24-2.36-.54-1.81,1.59-2.74,1.71-.75,1.38-.81,2.44.62s2.23,2.48,4.17,2a.49.49,0,0,1,.17,0,1.62,1.62,0,0,0,1.66-.71c.58-.72,1.18-1.42,1.8-2.11.15-.17.46-.4.61-.35a9.52,9.52,0,0,1,2.75,1.22c.33.27,0,1.3,0,2s-.05,1.16-.05,1.74a1.09,1.09,0,0,0,.13.66,11.27,11.27,0,0,0,2.17,2.09,3.61,3.61,0,0,0,2,.11c2.59-.23,2.59-.24,3.52,2.2,0,.08.1.17.09.24-.08.32-.07.74-.28.94-.7.69-1.53,1.25-2.2,2a2.21,2.21,0,0,0-.56,1.35A5,5,0,0,0,55.62,67a7.7,7.7,0,0,0,1.68,2l.69.57A3.68,3.68,0,0,1,58,71.46Z"/><path class="cls-5" d="M42.86,56.72a8.71,8.71,0,1,0,8.7,8.7A8.72,8.72,0,0,0,42.86,56.72Zm0,15.32a6.62,6.62,0,1,1,6.62-6.62A6.63,6.63,0,0,1,42.86,72Z"/><path class="cls-6" d="M91.23,46.32h0l-1.11-1c-1.2-1-1.21-1.92,0-2.91.53-.45,1-.92,1.59-1.35a1.51,1.51,0,0,0,.52-1.92c-.48-1.18-1-2.36-1.51-3.53A1.46,1.46,0,0,0,89,34.73c-.84.1-1.69.2-2.54.28a1.64,1.64,0,0,1-1.68-1.61,25.23,25.23,0,0,0,.13-2.88,1.71,1.71,0,0,0-.73-1.26,35.47,35.47,0,0,0-3.76-1.57,1.36,1.36,0,0,0-1.64.5c-.56.68-1.14,1.35-1.71,2a1.62,1.62,0,0,1-2.41,0l-1.71-2a1.32,1.32,0,0,0-1.59-.44c-1.31.52-2.61,1.08-3.9,1.66a1.32,1.32,0,0,0-.75,1.46c.09.8.18,1.59.25,2.39a1.61,1.61,0,0,1-1.86,1.94c-.8,0-1.6-.1-2.4-.16a1.37,1.37,0,0,0-1.54.88c-.52,1.23-1,2.47-1.49,3.71a1.33,1.33,0,0,0,.48,1.57l1.65,1.4c1.28,1.08,1.27,2,0,3.1L60.18,47a1.32,1.32,0,0,0-.45,1.58c.51,1.29,1.05,2.57,1.61,3.84a1.4,1.4,0,0,0,1.58.83c.68-.08,1.38-.13,2.07-.22,1.53-.2,2.25.45,2.17,2,0,.72-.08,1.44-.15,2.16a1.48,1.48,0,0,0,.93,1.69c1.18.49,2.37,1,3.56,1.43a1.39,1.39,0,0,0,1.71-.5c.56-.68,1.14-1.35,1.71-2a1.61,1.61,0,0,1,2.36,0c.58.66,1.15,1.34,1.71,2a1.43,1.43,0,0,0,1.73.46c.92-.35,1.85-.68,2.75-1.09,1.86-.85,2-1.06,1.69-3.07,0-.34-.09-.68-.13-1L84.78,54l.92-1h2.09c.38,0,.75,0,1.13,0a1.86,1.86,0,0,0,2.24-1.54h0a9.64,9.64,0,0,0,.91-3.28A1.92,1.92,0,0,0,91.23,46.32Zm-1.32,3.26c-.12.25-.25.48-.35.72-.39.92-.65,1.06-1.65.84l-.3-.09c-1.31-.3-1.87-.5-3.48.9-.17.26-.51.41-.68.68a2.05,2.05,0,0,0-.43,1,20.51,20.51,0,0,0,.24,2.71c.07.5,0,.81-.52,1a17.5,17.5,0,0,0-1.84.78.75.75,0,0,1-1-.28c-.55-.69-1.12-1.36-1.72-2a1.37,1.37,0,0,0-.78-.48c-1.61-.06-3.16-.21-4.29,1.5s-1.29,1.58-3.21.79c-.69-.28-1-.6-.88-1.4A12.84,12.84,0,0,0,69.13,54a1.81,1.81,0,0,0-.15-.93,4,4,0,0,0-3.8-2c-2.47.27-2.46.27-3.33-2.11a.82.82,0,0,1,.27-1.1,21.92,21.92,0,0,0,2.06-1.78,1.88,1.88,0,0,0,.45-1.05,10,10,0,0,0,0-1.89,1.75,1.75,0,0,0-.37-.95,7.33,7.33,0,0,0-1-.92c-1.8-1.54-1.8-1.53-.78-3.7,0-.05,0-.12.07-.14.26-.16.53-.43.8-.44.93,0,1.86.11,2.8.13A1.21,1.21,0,0,0,67,37c1.09-1.08,2.53-2,1.92-3.94a1.1,1.1,0,0,1,0-.31c-.22-2.19-.49-1.67,1.47-2.53,1.58-.7,1.28-.75,2.25.57S74.61,33,76.4,32.62a.43.43,0,0,1,.16,0A1.5,1.5,0,0,0,78.09,32c.53-.66,1.09-1.31,1.66-1.95.15-.16.43-.37.57-.32a8.52,8.52,0,0,1,2.53,1.12c.31.25,0,1.2,0,1.84s0,1.07,0,1.6a1,1,0,0,0,.12.61,10.71,10.71,0,0,0,2,1.93,3.33,3.33,0,0,0,1.87.1c2.4-.2,2.4-.22,3.25,2,0,.08.1.16.08.23-.06.29-.06.68-.25.87-.65.63-1.41,1.15-2,1.8a2.06,2.06,0,0,0-.52,1.25,4.69,4.69,0,0,0,.39,2.34,6.86,6.86,0,0,0,1.55,1.87l.64.53A3.35,3.35,0,0,1,89.91,49.58Z"/><path class="cls-6" d="M76,36a8,8,0,1,0,8,8A8,8,0,0,0,76,36Zm0,14.14A6.11,6.11,0,1,1,82.07,44,6.11,6.11,0,0,1,76,50.11Z"/><path class="cls-7" d="M107.76,97.4h0c-.65-.57-1.26-1.1-1.88-1.62-2-1.68-2-3.23,0-4.9.89-.76,1.76-1.55,2.68-2.27a2.52,2.52,0,0,0,.88-3.22c-.81-2-1.67-4-2.54-6A2.47,2.47,0,0,0,104,77.91c-1.43.17-2.85.34-4.29.47a2.77,2.77,0,0,1-2.82-2.7,43.77,43.77,0,0,0,.22-4.84,2.9,2.9,0,0,0-1.22-2.14,63.88,63.88,0,0,0-6.33-2.63,2.3,2.3,0,0,0-2.76.83c-.94,1.15-1.91,2.28-2.87,3.4a2.72,2.72,0,0,1-4.06,0L77,66.9a2.2,2.2,0,0,0-2.66-.75C72.14,67,70,68,67.79,68.94a2.21,2.21,0,0,0-1.27,2.46c.14,1.34.29,2.68.41,4,.19,2.16-1,3.36-3.12,3.26-1.34-.06-2.69-.16-4-.27a2.35,2.35,0,0,0-2.61,1.48c-.86,2.07-1.69,4.16-2.49,6.25a2.21,2.21,0,0,0,.8,2.64l2.78,2.36c2.14,1.81,2.13,3.39-.06,5.21l-2.67,2.27a2.22,2.22,0,0,0-.76,2.66q1.3,3.25,2.71,6.45a2.34,2.34,0,0,0,2.65,1.4c1.16-.13,2.33-.21,3.49-.36,2.57-.34,3.79.74,3.65,3.3-.07,1.21-.14,2.42-.26,3.63a2.51,2.51,0,0,0,1.57,2.83c2,.84,4,1.64,6,2.41a2.37,2.37,0,0,0,2.89-.83c.94-1.14,1.9-2.28,2.87-3.4a2.72,2.72,0,0,1,4,0c1,1.12,1.92,2.26,2.88,3.39a2.39,2.39,0,0,0,2.9.79c1.55-.6,3.12-1.15,4.63-1.84,3.13-1.42,3.29-1.78,2.85-5.17-.08-.56-.15-1.13-.22-1.7l-.43-1.89,1.55-1.67H102c.63,0,1.27,0,1.9,0,2.18.07,3.07-.47,3.77-2.59,0,0,0,0,0,0a16.18,16.18,0,0,0,1.53-5.51A3.23,3.23,0,0,0,107.76,97.4Zm-2.21,5.49c-.21.43-.43.81-.6,1.22-.65,1.55-1.08,1.78-2.76,1.41-.18,0-.34-.12-.52-.16-2.21-.5-3.14-.83-5.85,1.52-.28.44-.85.69-1.14,1.14a3.52,3.52,0,0,0-.73,1.75,36.61,36.61,0,0,0,.41,4.56c.11.84,0,1.37-.88,1.68-1,.38-2.08.84-3.1,1.32a1.24,1.24,0,0,1-1.72-.48c-.92-1.16-1.88-2.29-2.9-3.37a2.28,2.28,0,0,0-1.32-.82c-2.7-.09-5.31-.34-7.21,2.53s-2.16,2.66-5.4,1.33c-1.16-.47-1.73-1-1.48-2.36a23.59,23.59,0,0,0,.24-3.76,3.27,3.27,0,0,0-.25-1.57,6.62,6.62,0,0,0-6.4-3.39c-4.15.45-4.13.45-5.61-3.56A1.38,1.38,0,0,1,58.8,100a41.33,41.33,0,0,0,3.46-3A3.19,3.19,0,0,0,63,95.28a16.21,16.21,0,0,0,0-3.19,3,3,0,0,0-.61-1.59A12.49,12.49,0,0,0,60.68,89c-3-2.59-3-2.58-1.32-6.23,0-.08,0-.2.12-.24.44-.26.89-.72,1.34-.73,1.57,0,3.14.18,4.72.22a2.15,2.15,0,0,0,1.39-.31c1.83-1.82,4.25-3.39,3.21-6.62a2.32,2.32,0,0,1,0-.53c-.38-3.68-.84-2.81,2.46-4.26,2.67-1.16,2.15-1.26,3.8,1s3.46,3.85,6.47,3.16a.62.62,0,0,1,.27,0,2.52,2.52,0,0,0,2.57-1.1Q87,71.59,88.46,70c.24-.27.72-.62,1-.54a14.45,14.45,0,0,1,4.27,1.88c.51.42.06,2,0,3.1,0,.9-.08,1.8-.08,2.69a1.63,1.63,0,0,0,.21,1A18.09,18.09,0,0,0,97.2,81.4c.79.49,2.1.26,3.15.16,4-.34,4-.37,5.46,3.43,0,.12.17.26.14.37-.11.5-.1,1.15-.42,1.46-1.09,1.07-2.38,1.94-3.42,3a3.42,3.42,0,0,0-.87,2.1,7.71,7.71,0,0,0,.66,3.94c.45.95.91,1.4,2.59,3.14l1.08.89A5.69,5.69,0,0,1,105.55,102.89Z"/><path class="cls-7" d="M82.08,80A13.52,13.52,0,1,0,95.59,93.51,13.53,13.53,0,0,0,82.08,80Zm0,23.79A10.27,10.27,0,1,1,92.35,93.51,10.28,10.28,0,0,1,82.08,103.79Z"/></svg>