<svg id="Layer_1" data-name="Layer 1" xmlns="http://www.w3.org/2000/svg" viewBox="0 0 171.28 168.74"><defs><style>.cls-1{font-size:14px;font-family:Arial-BoldMT, Arial;font-weight:700;}.cls-1,.cls-2{fill:#1a83c5;}.cls-3{fill:#fff;}</style></defs><text class="cls-1" transform="translate(0.48 165.42)">ALGORITHMIC THINKING</text><g id="g5453"><circle id="path3342-01-4" class="cls-2" cx="85.64" cy="73.78" r="73.4"/><path id="path4621-0-5" class="cls-3" d="M128.36,105.4H82.26a3.16,3.16,0,0,0-1.9.54,1.65,1.65,0,0,0-.74,1.38v11.51a1.67,1.67,0,0,0,.74,1.39,3.23,3.23,0,0,0,1.9.53h46.1a3.19,3.19,0,0,0,1.9-.53,1.64,1.64,0,0,0,.74-1.39V107.32a1.63,1.63,0,0,0-.74-1.38A3.12,3.12,0,0,0,128.36,105.4Z"/><path id="path4623-8-4" class="cls-3" d="M69.4,105.45H58.64V28.34a1.74,1.74,0,0,0-.5-1.29,1.78,1.78,0,0,0-1.29-.5H46.09a1.71,1.71,0,0,0-1.79,1.79v77.11H33.54a1.66,1.66,0,0,0-1.68,1.12,1.7,1.7,0,0,0,.39,2l17.93,17.94a2,2,0,0,0,1.29.5,1.88,1.88,0,0,0,1.29-.5l17.88-17.88a2.13,2.13,0,0,0,.56-1.34,1.73,1.73,0,0,0-1.8-1.8Z"/><path id="path4625-8-3" class="cls-3" d="M129.1,79.09H81.52a1.86,1.86,0,0,0-1.37.54A1.9,1.9,0,0,0,79.62,81V92.53a1.9,1.9,0,0,0,.53,1.38,1.86,1.86,0,0,0,1.37.54H129.1a1.85,1.85,0,0,0,1.37-.54,1.9,1.9,0,0,0,.53-1.38V81a1.9,1.9,0,0,0-.53-1.38A1.85,1.85,0,0,0,129.1,79.09Z"/><path id="path4627-3-8" class="cls-3" d="M130.4,27a2.25,2.25,0,0,0-1.53-.54H81.76a2.21,2.21,0,0,0-1.54.54,1.77,1.77,0,0,0-.6,1.38V39.91a1.77,1.77,0,0,0,.6,1.38,2.21,2.21,0,0,0,1.54.54h47.11a2.2,2.2,0,0,0,1.53-.54,1.77,1.77,0,0,0,.6-1.38V28.39A1.77,1.77,0,0,0,130.4,27Z"/><path id="path4629-0-4" class="cls-3" d="M129.24,52.78H81.39a1.64,1.64,0,0,0-1.27.54,2,2,0,0,0-.5,1.38V66.22a1.92,1.92,0,0,0,.5,1.38,1.64,1.64,0,0,0,1.27.54h47.85a1.67,1.67,0,0,0,1.27-.54,2,2,0,0,0,.49-1.38V54.7a2,2,0,0,0-.49-1.38A1.67,1.67,0,0,0,129.24,52.78Z"/></g></svg>