<svg id="Layer_1" data-name="Layer 1" xmlns="http://www.w3.org/2000/svg" viewBox="0 0 147.29 205.08"><defs><style>.cls-1,.cls-4{fill:#e9cc00;}.cls-2,.cls-3{fill:none;stroke:#fff;stroke-linecap:round;stroke-linejoin:round;}.cls-2{stroke-width:2px;}.cls-3{stroke-width:1.88px;}.cls-4{font-size:14px;font-family:Arial-BoldMT, Arial;font-weight:700;}.cls-5{letter-spacing:-0.07em;}</style></defs><circle class="cls-1" cx="73.64" cy="75.3" r="73.64"/><rect class="cls-2" x="32.3" y="51.66" width="87.73" height="8.35" rx="4"/><rect class="cls-2" x="24.66" y="39.78" width="103.02" height="8.35" rx="4.18"/><path class="cls-2" d="M56.17,62.79H97a2.79,2.79,0,0,1,2.79,2.79v3a0,0,0,0,1,0,0H52.58a0,0,0,0,1,0,0V66.38A3.59,3.59,0,0,1,56.17,62.79Z"/><circle class="cls-3" cx="108.74" cy="68.91" r="8.73"/><circle class="cls-3" cx="108.74" cy="68.91" r="3.69"/><circle class="cls-3" cx="43.53" cy="68.91" r="8.73"/><circle class="cls-3" cx="43.53" cy="68.91" r="3.69"/><line class="cls-2" x1="55.3" y1="68.55" x2="55.3" y2="123.64"/><line class="cls-2" x1="70.38" y1="68.55" x2="70.38" y2="123.64"/><line class="cls-2" x1="82.17" y1="68.55" x2="82.17" y2="123.64"/><line class="cls-2" x1="97.54" y1="68.55" x2="97.54" y2="123.64"/><text class="cls-4" transform="translate(22.83 167.85)">CU<tspan class="cls-5" x="20.22" y="0">L</tspan><tspan x="27.73" y="0">TURELE &amp; </tspan><tspan x="-1.31" y="16.8">BURGERLIJKE </tspan><tspan x="-8.3" y="33.6">GELETTERDHEID</tspan></text></svg>