<svg id="Layer_1" data-name="Layer 1" xmlns="http://www.w3.org/2000/svg" viewBox="0 0 151.43 184.09"><defs><style>.cls-1{fill:#e9cc00;}.cls-2,.cls-3{fill:none;stroke:#fff;stroke-linecap:round;stroke-linejoin:round;}.cls-2{stroke-width:2px;}.cls-3{stroke-width:1.88px;}</style></defs><circle class="cls-1" cx="75.71" cy="73.64" r="73.64"/><rect class="cls-2" x="34.37" y="50" width="87.73" height="8.35" rx="4"/><rect class="cls-2" x="26.73" y="38.12" width="103.02" height="8.35" rx="4.18"/><path class="cls-2" d="M58.24,61.13H99a2.79,2.79,0,0,1,2.79,2.79v3a0,0,0,0,1,0,0H54.65a0,0,0,0,1,0,0V64.72A3.59,3.59,0,0,1,58.24,61.13Z"/><circle class="cls-3" cx="110.82" cy="67.25" r="8.73"/><circle class="cls-3" cx="110.82" cy="67.25" r="3.69"/><circle class="cls-3" cx="45.6" cy="67.25" r="8.73"/><circle class="cls-3" cx="45.6" cy="67.25" r="3.69"/><line class="cls-2" x1="57.38" y1="66.89" x2="57.38" y2="121.98"/><line class="cls-2" x1="72.45" y1="66.89" x2="72.45" y2="121.98"/><line class="cls-2" x1="84.24" y1="66.89" x2="84.24" y2="121.98"/><line class="cls-2" x1="99.61" y1="66.89" x2="99.61" y2="121.98"/><path class="cls-1" d="M8.22,161.74l2,.62a4.38,4.38,0,0,1-1.5,2.43,4.21,4.21,0,0,1-2.66.8,4.31,4.31,0,0,1-3.28-1.36,5.22,5.22,0,0,1-1.29-3.73,5.49,5.49,0,0,1,1.3-3.89,4.42,4.42,0,0,1,3.39-1.38,4.17,4.17,0,0,1,3,1.08,4,4,0,0,1,1,1.85l-2,.48a2.06,2.06,0,0,0-.74-1.23A2.11,2.11,0,0,0,6,157a2.28,2.28,0,0,0-1.81.8,3.92,3.92,0,0,0-.69,2.59,4.22,4.22,0,0,0,.68,2.7,2.23,2.23,0,0,0,1.78.81,2,2,0,0,0,1.39-.51A3,3,0,0,0,8.22,161.74Z"/><path class="cls-1" d="M11.91,155.4h2v5.43A10.92,10.92,0,0,0,14,162.5a1.62,1.62,0,0,0,.61,1,2.17,2.17,0,0,0,1.34.37,2.08,2.08,0,0,0,1.3-.35,1.41,1.41,0,0,0,.53-.87,11.38,11.38,0,0,0,.08-1.7V155.4h2v5.26a13.24,13.24,0,0,1-.17,2.55,2.85,2.85,0,0,1-.6,1.26,3.15,3.15,0,0,1-1.18.82,5.21,5.21,0,0,1-1.93.3,5.51,5.51,0,0,1-2.17-.33,3.14,3.14,0,0,1-1.18-.86,3,3,0,0,1-.57-1.11,12.5,12.5,0,0,1-.19-2.55Z"/><path class="cls-1" d="M22.09,165.42v-9.94h2v8.25h5v1.69Z"/><path class="cls-1" d="M31.8,165.42v-8.33h-3V155.4h8v1.69h-3v8.33Z"/><path class="cls-1" d="M38.08,155.4h2v5.43a10.92,10.92,0,0,0,.08,1.67,1.63,1.63,0,0,0,.62,1,2.13,2.13,0,0,0,1.34.37,2,2,0,0,0,1.29-.35,1.37,1.37,0,0,0,.53-.87,11,11,0,0,0,.09-1.7V155.4h2v5.26a13.47,13.47,0,0,1-.16,2.55,2.76,2.76,0,0,1-.61,1.26,3.07,3.07,0,0,1-1.18.82,5.15,5.15,0,0,1-1.92.3,5.56,5.56,0,0,1-2.18-.33,3,3,0,0,1-1.17-.86,2.74,2.74,0,0,1-.57-1.11,12.35,12.35,0,0,1-.2-2.55Z"/><path class="cls-1" d="M48.21,165.42v-10h4.26a7.35,7.35,0,0,1,2.34.27,2.31,2.31,0,0,1,1.16,1,2.91,2.91,0,0,1,.44,1.58,2.68,2.68,0,0,1-.66,1.86,3.24,3.24,0,0,1-2,.93,4.56,4.56,0,0,1,1.09.84A11.3,11.3,0,0,1,56,163.47l1.22,1.95H54.8l-1.46-2.18a13.7,13.7,0,0,0-1.07-1.47,1.4,1.4,0,0,0-.61-.42,3.15,3.15,0,0,0-1-.11h-.41v4.18Zm2-5.78h1.49a7.17,7.17,0,0,0,1.82-.13,1.1,1.1,0,0,0,.57-.42,1.27,1.27,0,0,0,.2-.75,1.21,1.21,0,0,0-.27-.82,1.19,1.19,0,0,0-.76-.39c-.16,0-.65,0-1.48,0H50.24Z"/><path class="cls-1" d="M67.35,165.42h-2.2l-.87-2.28h-4l-.83,2.28H57.3l3.9-10h2.14Zm-3.72-4-1.38-3.72-1.36,3.72Z"/><path class="cls-1" d="M68.48,165.42v-9.94h2v8.25h5v1.69Z"/><path class="cls-1" d="M89.13,165.42h-2.2l-.87-2.28h-4l-.83,2.28H79.08l3.9-10h2.14Zm-3.72-4L84,157.74l-1.36,3.72Z"/><path class="cls-1" d="M90.23,165.42v-10h2l4.11,6.69V155.4h1.88v10h-2l-4-6.53v6.53Z"/><path class="cls-1" d="M100.31,155.4H104a7.05,7.05,0,0,1,1.9.19,3.36,3.36,0,0,1,1.52.92,4.39,4.39,0,0,1,.95,1.63,7.36,7.36,0,0,1,.33,2.37,6.47,6.47,0,0,1-.31,2.13,4.44,4.44,0,0,1-1.07,1.77,3.53,3.53,0,0,1-1.42.8,6.22,6.22,0,0,1-1.79.21h-3.81Zm2,1.69v6.64h1.51a5.89,5.89,0,0,0,1.23-.09,2,2,0,0,0,.81-.42,2.06,2.06,0,0,0,.53-1,6.38,6.38,0,0,0,.21-1.83,5.9,5.9,0,0,0-.21-1.79,2.2,2.2,0,0,0-.57-1,2,2,0,0,0-.94-.47,9.34,9.34,0,0,0-1.66-.1Z"/><path class="cls-1" d="M120.73,161.74l2,.62a4.38,4.38,0,0,1-1.5,2.43,4.23,4.23,0,0,1-2.66.8,4.29,4.29,0,0,1-3.28-1.36A5.22,5.22,0,0,1,114,160.5a5.49,5.49,0,0,1,1.29-3.89,4.45,4.45,0,0,1,3.4-1.38,4.19,4.19,0,0,1,3,1.08,4.05,4.05,0,0,1,1,1.85l-2,.48a2.16,2.16,0,0,0-.74-1.23,2.13,2.13,0,0,0-1.37-.45,2.26,2.26,0,0,0-1.81.8,3.92,3.92,0,0,0-.69,2.59,4.16,4.16,0,0,0,.68,2.7,2.21,2.21,0,0,0,1.78.81,2,2,0,0,0,1.38-.51A3,3,0,0,0,120.73,161.74Z"/><path class="cls-1" d="M124.36,165.42v-10h2v10Z"/><path class="cls-1" d="M130.87,165.42l-3.58-10h2.19l2.54,7.42,2.45-7.42h2.15l-3.59,10Z"/><path class="cls-1" d="M137.59,165.42v-10h2v10Z"/><path class="cls-1" d="M148,161.74l2,.62a4.38,4.38,0,0,1-1.5,2.43,4.24,4.24,0,0,1-2.67.8,4.31,4.31,0,0,1-3.28-1.36,5.26,5.26,0,0,1-1.28-3.73,5.49,5.49,0,0,1,1.29-3.89,4.43,4.43,0,0,1,3.4-1.38,4.17,4.17,0,0,1,3,1.08,4,4,0,0,1,1,1.85l-2,.48a2.07,2.07,0,0,0-2.12-1.68,2.24,2.24,0,0,0-1.8.8,3.86,3.86,0,0,0-.7,2.59,4.15,4.15,0,0,0,.69,2.7,2.21,2.21,0,0,0,1.77.81,2,2,0,0,0,1.39-.51A3,3,0,0,0,148,161.74Z"/><path class="cls-1" d="M41.91,182.22v-9.94h2v8.25h5v1.69Z"/><path class="cls-1" d="M50.35,182.22v-10h2v10Z"/><path class="cls-1" d="M56.56,182.22v-8.33h-3V172.2h8v1.69h-3v8.33Z"/><path class="cls-1" d="M62.85,182.22v-10h7.43v1.69h-5.4v2.23h5v1.68h-5v2.73h5.59v1.69Z"/><path class="cls-1" d="M72.2,182.22v-10h4.26a7.28,7.28,0,0,1,2.33.27,2.37,2.37,0,0,1,1.17,1,2.9,2.9,0,0,1,.43,1.58,2.68,2.68,0,0,1-.66,1.86,3.19,3.19,0,0,1-2,.93,4.49,4.49,0,0,1,1.08.84A10.87,10.87,0,0,1,80,180.26l1.23,2H78.79L77.32,180a14.16,14.16,0,0,0-1.06-1.47,1.46,1.46,0,0,0-.61-.42,3.22,3.22,0,0,0-1-.11h-.41v4.18Zm2-5.78h1.5a7.22,7.22,0,0,0,1.82-.13,1,1,0,0,0,.56-.42,1.28,1.28,0,0,0,.21-.75,1.13,1.13,0,0,0-1-1.21c-.17,0-.66,0-1.48,0H74.22Z"/><path class="cls-1" d="M91.34,182.22h-2.2l-.88-2.28h-4l-.83,2.28H81.28l3.9-10h2.14Zm-3.73-4-1.38-3.72-1.35,3.72Z"/><path class="cls-1" d="M98.82,178.54l2,.62a4.38,4.38,0,0,1-1.5,2.43,4.21,4.21,0,0,1-2.66.8A4.31,4.31,0,0,1,93.34,181a5.22,5.22,0,0,1-1.28-3.73,5.49,5.49,0,0,1,1.29-3.89A4.42,4.42,0,0,1,96.74,172a4.17,4.17,0,0,1,3,1.08,4,4,0,0,1,1,1.85l-2,.48a2.06,2.06,0,0,0-.74-1.23,2.11,2.11,0,0,0-1.37-.45,2.28,2.28,0,0,0-1.81.8,3.92,3.92,0,0,0-.69,2.59,4.22,4.22,0,0,0,.68,2.7,2.23,2.23,0,0,0,1.78.81,2,2,0,0,0,1.39-.51A3,3,0,0,0,98.82,178.54Z"/><path class="cls-1" d="M105.15,182.22V178l-3.67-5.8h2.37l2.36,4,2.31-4h2.33L107.17,178v4.2Z"/></svg>