<svg id="Layer_1" data-name="Layer 1" xmlns="http://www.w3.org/2000/svg" viewBox="0 0 147.29 171.71"><defs><style>.cls-1{font-size:14px;font-family:Arial-BoldMT, Arial;font-weight:700;}.cls-1,.cls-2{fill:#6371b4;}.cls-3{fill:#fff;stroke:#fff;stroke-miterlimit:10;stroke-width:0.75px;}</style></defs><text class="cls-1" transform="translate(14.53 167.84)">SAMENWERKING</text><circle class="cls-2" cx="73.64" cy="73.64" r="73.64"/><g id="ftZfu6.tif"><path class="cls-3" d="M93,79.59l-2.33,2.34c.63.6,1.26,1.2,1.87,1.81q3.84,3.83,7.68,7.68a4.06,4.06,0,0,1,.4,5.63,4.12,4.12,0,0,1-6.12.11c-3-3-6-6-9-9a4.42,4.42,0,0,1-.41-.52l-2.44,2.44a4.29,4.29,0,0,1,.68.48q3.95,3.92,7.87,7.85A4,4,0,0,1,92,103a3.92,3.92,0,0,1-3.89,2.29,4.5,4.5,0,0,1-2.92-1.41c-2.57-2.58-5.16-5.15-7.73-7.73a4.77,4.77,0,0,1-.4-.55l-2.37,2.45c.66.63,1.44,1.34,2.19,2.08,1.37,1.36,2.76,2.7,4.09,4.1a4,4,0,0,1-1.78,6.6,10.44,10.44,0,0,1-2.38,0,7.42,7.42,0,0,0-.86-6.91,7.29,7.29,0,0,0-6.16-3.07,7.42,7.42,0,0,0-1.66-6,7.33,7.33,0,0,0-5.77-2.55,7.32,7.32,0,0,0-2-6.4,7.24,7.24,0,0,0-6.44-2.08c0-.32-.07-.63-.09-.94a7.21,7.21,0,0,0-10.53-5.74.68.68,0,0,1-1-.22,8.11,8.11,0,0,1-2-5.06,8.93,8.93,0,0,0-3-6.69,4.87,4.87,0,0,1-.34-.37c7.61-7.61,15.2-15.21,23-23a5.6,5.6,0,0,0,.67.92,8.24,8.24,0,0,0,5.93,2.53,8.24,8.24,0,0,1,5.71,2.3l-.59.62-6.54,6.53a7.55,7.55,0,0,0-1.1,9.57,7.23,7.23,0,0,0,11.08,1c2.09-2,4.15-4.13,6.21-6.2.4-.4.75-.84,1.18-1.33L84.74,60Q95.87,71.13,107,82.26a4,4,0,1,1-5.49,5.95c-2.66-2.62-5.28-5.27-7.92-7.91C93.38,80.09,93.19,79.86,93,79.59Z"/><path class="cls-3" d="M89.38,42l22.83,22.85-.52.55a8.86,8.86,0,0,0-2.8,6.3,8.14,8.14,0,0,1-2.17,5.48L88.5,58.91a11.29,11.29,0,0,0,7.76-3.28l-2.21-2.22c-3.8,3.05-7.62,3.06-11.65-.16a3.3,3.3,0,0,1-.42.68Q77.47,58.48,72.92,63a4,4,0,1,1-5.68-5.74q4.85-4.94,9.79-9.78a7.79,7.79,0,0,1,5.44-2.16A8.64,8.64,0,0,0,89,42.37,4.62,4.62,0,0,1,89.38,42Z"/><path class="cls-3" d="M32.21,64.56,25.63,58Q39.3,44.32,53,30.68l6.57,6.58Z"/><path class="cls-3" d="M89.63,37.3l6.68-6.69,27.28,27.25-6.7,6.69Z"/><path class="cls-3" d="M55.18,87a4,4,0,0,1,3.71,2.49,3.85,3.85,0,0,1-.79,4.33C57,95,55.76,96.19,54.57,97.35a4,4,0,0,1-5.59.07,4,4,0,0,1-.28-5.61c1.22-1.35,2.54-2.6,3.86-3.86A3.71,3.71,0,0,1,55.18,87Z"/><path class="cls-3" d="M62.85,95.55A3.85,3.85,0,0,1,66.28,98a3.79,3.79,0,0,1-.66,4.3c-.81.92-1.7,1.79-2.6,2.63a4,4,0,0,1-5.45,0,4,4,0,0,1-.43-5.46,33.63,33.63,0,0,1,3-3A3.78,3.78,0,0,1,62.85,95.55Z"/><path class="cls-3" d="M46.2,79.52c2.1.12,3.4.87,4.09,2.45a3.87,3.87,0,0,1-.76,4.41c-.79.86-1.63,1.67-2.48,2.48a4.05,4.05,0,0,1-5.45,0,4,4,0,0,1-.53-5.41,23.59,23.59,0,0,1,3.18-3.14A6.4,6.4,0,0,1,46.2,79.52Z"/><path class="cls-3" d="M68.53,113.3A3.66,3.66,0,0,1,65.21,111a3.89,3.89,0,0,1,.71-4.4c.37-.43.79-.81,1.19-1.2A4.07,4.07,0,0,1,72.6,105a4,4,0,0,1,.71,5.39C72,112.3,70.62,113.29,68.53,113.3Z"/></g></svg>