<svg id="Layer_1" data-name="Layer 1" xmlns="http://www.w3.org/2000/svg" viewBox="0 0 147.29 171.71"><defs><style>.cls-1{font-size:14px;font-family:Arial-BoldMT, Arial;font-weight:700;}.cls-1,.cls-3,.cls-5{fill:#6371b4;}.cls-2{letter-spacing:-0.07em;}.cls-4,.cls-6{fill:#fff;}.cls-5,.cls-6{stroke:#fff;}.cls-5{stroke-linecap:round;stroke-linejoin:round;stroke-width:2.43px;}.cls-6{stroke-miterlimit:10;stroke-width:5px;}</style></defs><text class="cls-1" transform="translate(18.95 167.84)">COMMUNIC<tspan class="cls-2" x="78.54" y="0">A</tspan><tspan x="87.62" y="0">TIE</tspan></text><circle class="cls-3" cx="73.64" cy="73.64" r="73.64"/><path class="cls-4" d="M103.16,106.16c.57,4.13,1.69,8.09,3.91,8.63A17.4,17.4,0,0,1,94.5,109a47.17,47.17,0,0,1-10.2,1.09c-21.77,0-39.43-14.4-39.43-32.16S62.53,45.73,84.3,45.73s39.43,14.4,39.43,32.17C123.73,90.09,115.41,100.7,103.16,106.16Z"/><path class="cls-5" d="M50,100.13c-.64,4.63-1.9,9.07-4.38,9.67,0,0,7.54.41,14.07-6.52a53.38,53.38,0,0,0,11.43,1.22c24.39,0,44.17-16.13,44.17-36s-19.78-36-44.17-36S27,48.57,27,68.47C27,82.13,36.27,94,50,100.13Z"/><circle class="cls-6" cx="84.3" cy="69.24" r="1.88"/><circle class="cls-6" cx="70.91" cy="69.24" r="1.88"/><circle class="cls-6" cx="57.52" cy="69.24" r="1.88"/></svg>