<svg id="Layer_1" data-name="Layer 1" xmlns="http://www.w3.org/2000/svg" viewBox="0 0 147.29 171.71"><defs><style>.cls-1{font-size:14px;font-family:Arial-BoldMT, Arial;font-weight:700;}.cls-1,.cls-3{fill:#6371b4;}.cls-2{letter-spacing:-0.07em;}.cls-4{fill:none;stroke:#fff;stroke-linecap:round;stroke-linejoin:round;stroke-width:2.43px;}</style></defs><text class="cls-1" transform="translate(26.33 167.84)">CRE<tspan class="cls-2" x="29.56" y="0">A</tspan><tspan x="38.63" y="0">TIVITEIT</tspan></text><circle class="cls-3" cx="73.64" cy="73.64" r="73.64"/><rect class="cls-4" x="49.3" y="44.73" width="15.49" height="55.65" transform="translate(-0.32 0.25) rotate(-0.25)"/><line class="cls-4" x1="57.16" y1="100.38" x2="56.92" y2="44.73"/><polygon class="cls-4" points="64.67 44.69 49.18 44.76 56.86 30.68 64.67 44.69"/><rect class="cls-4" x="49.43" y="100.38" width="15.49" height="5.52" transform="matrix(1, 0, 0, 1, -0.45, 0.25)"/><line class="cls-4" x1="54.48" y1="35.03" x2="59.27" y2="35.01"/><polygon class="cls-4" points="98.72 108.12 81 108.12 81 39.25 81 30.29 98.72 30.29 98.72 108.12"/><line class="cls-4" x1="86.23" y1="38.94" x2="81" y2="38.94"/><line class="cls-4" x1="86.23" y1="45.9" x2="81" y2="45.9"/><line class="cls-4" x1="86.23" y1="52.87" x2="81" y2="52.87"/><line class="cls-4" x1="86.23" y1="59.83" x2="81" y2="59.83"/><line class="cls-4" x1="86.23" y1="66.79" x2="81" y2="66.79"/><line class="cls-4" x1="86.23" y1="73.76" x2="81" y2="73.76"/><line class="cls-4" x1="86.23" y1="80.72" x2="81" y2="80.72"/><line class="cls-4" x1="86.23" y1="87.68" x2="81" y2="87.68"/><line class="cls-4" x1="86.23" y1="94.64" x2="81" y2="94.64"/><line class="cls-4" x1="86.23" y1="101.61" x2="81" y2="101.61"/></svg>