<svg id="Layer_1" data-name="Layer 1" xmlns="http://www.w3.org/2000/svg" viewBox="0 0 147.29 167.36"><defs><style>.cls-1{font-size:14px;font-family:Arial-BoldMT, Arial;font-weight:700;}.cls-1,.cls-3{fill:#6371b4;}.cls-2{letter-spacing:-0.02em;}.cls-4{fill:#fff;stroke:#fff;stroke-miterlimit:10;stroke-width:0.35px;}</style></defs><text class="cls-1" transform="translate(5.33 165.42)">CRITICA<tspan class="cls-2" x="56.77" y="0">L</tspan><tspan x="65.07" y="0" xml:space="preserve"> THINKING</tspan></text><circle class="cls-3" cx="73.64" cy="73.64" r="73.64"/><path class="cls-4" d="M115.57,68.33c-.77,4.28-3.35,8.92-5.27,11.92h0c-.42.72-.84,1.51-1.32,2.26-2.31,3.66-4.66,7.32-7,11-.6.95-1.16,1.93-1.7,2.92a13.07,13.07,0,0,0-1.6,6.42A71.38,71.38,0,0,0,100,116.14c.43,2.22.85,4.43,1.28,6.65.14.7.07,1.29-.72,1.52-.64.18-1.13-.2-1.31-1a98.69,98.69,0,0,1-2.58-19.76,16.66,16.66,0,0,1,2.46-9.17c2.17-3.49,4.4-6.94,6.6-10.41.6-1,1.16-1.94,1.77-2.88.21-.33.44-.64.66-1h0a6.93,6.93,0,0,0,.93-1.66c.32-.61.65-1.29,1-2,1.74-3.73,3.5-8.22,3.5-8.22l0-.18a.2.2,0,0,0,0-.09c.3-1.45.62-2.8.84-4.16,1.47-9.35-.13-18.05-5.66-25.85A30.81,30.81,0,0,0,95.1,27.13a49.19,49.19,0,0,0-22-3.82A40.67,40.67,0,0,0,51.88,30.8a49.42,49.42,0,0,0-6.4,5.31,19.87,19.87,0,0,0-5.73,18.7,7.87,7.87,0,0,1-2,7.4c-1.78,1.95-3.48,4-5.19,6l-.19.21-3.59,3.89c-.63,1.37.81,1.46,1.39,2.17l1.28.79a1,1,0,0,1,.66.09c.72.3,1.43.61,2.13,1,2.31,1.19,2.5,2.07,1.54,4.42a9.41,9.41,0,0,1-2,2.5,13.27,13.27,0,0,1-1.57,1.32c1,.87,1.94,1.7,2.92,2.43,1.31,1,1.29,1.62-.17,2.36a4.47,4.47,0,0,0-.88.55C32.68,91,32.49,92,33.84,93.23c1.84,1.63,2.08,3.44,1.33,5.63a7.84,7.84,0,0,0-.45,4.52A3,3,0,0,0,37.35,106c1.81.21,3.62.44,5.44.49a31.9,31.9,0,0,1,7.73,1,11.88,11.88,0,0,1,5.66,3.22,3.72,3.72,0,0,1,.64.88h0a11.57,11.57,0,0,1,1.54,3.55h0c0,.16.08.31.1.44a19,19,0,0,1,.37,3.1c0,1.5,0,3-.1,4.51-.05.85-.52,1.29-1.17,1.17s-1-.71-.9-1.44a25.06,25.06,0,0,0-.35-7.43,7,7,0,0,0-4-5.12c-2.7-1.37-5.64-1.61-8.61-1.75-1.93-.09-3.87-.15-5.79-.36-4.39-.49-5.72-3.5-5.32-7.34a23,23,0,0,1,.83-3.54,1.82,1.82,0,0,0-.58-2.1,6.06,6.06,0,0,1-.77-.83c-1.71-2-1.59-4,.33-5.82l.58-.54c-.6-.61-1.2-1.15-1.72-1.75-1.32-1.55-1.17-2.68.38-4,.75-.63,1.4-1.36,2.1-2a2.8,2.8,0,0,1,.45-.31c0-.51-.06-1-.1-1.57l.41.17.05-.12-.46-.07v0l-5-2.16c-1.76-1.28-1.91-1.92-1.91-1.92-1-.75-.94-2,.14-3.08L29.84,68c1-1,1.89-1.94,2.71-2.9,1.51-1.76,3-3.56,4.44-5.34a4,4,0,0,0,.85-3.56,23.58,23.58,0,0,1,1.07-14,25.93,25.93,0,0,1,7.54-9.93c7-6,15.08-9.86,24.31-10.78,11.59-1.16,22.58.9,32.2,7.76,9,6.42,13.46,15.51,14.06,26.5A39.23,39.23,0,0,1,115.57,68.33Z"/><path class="cls-4" d="M34.53,78.43l-.05.12-.41-.17v0Z"/><path class="cls-4" d="M110,76.42c-.33.71-.66,1.39-1,2a3.58,3.58,0,0,0,.11-.35,6.29,6.29,0,0,1,.51-1A3.65,3.65,0,0,1,110,76.42Z"/><path class="cls-4" d="M85.14,50.56h0c-.42-.37-.81-.71-1.21-1-1.29-1.09-1.3-2.09,0-3.16.58-.49,1.14-1,1.73-1.46a1.64,1.64,0,0,0,.57-2.08c-.52-1.28-1.08-2.56-1.64-3.83a1.61,1.61,0,0,0-1.83-1c-.92.12-1.84.23-2.76.31a1.79,1.79,0,0,1-1.82-1.74,27.16,27.16,0,0,0,.15-3.12,1.9,1.9,0,0,0-.79-1.37,41.73,41.73,0,0,0-4.08-1.7,1.48,1.48,0,0,0-1.78.54c-.6.74-1.22,1.46-1.84,2.19a1.77,1.77,0,0,1-2.62,0c-.62-.73-1.24-1.45-1.85-2.18a1.44,1.44,0,0,0-1.72-.49q-2.13.86-4.22,1.8a1.43,1.43,0,0,0-.82,1.58c.09.87.19,1.73.27,2.59a1.74,1.74,0,0,1-2,2.1c-.87,0-1.73-.1-2.6-.17a1.51,1.51,0,0,0-1.68,1C52,40.61,51.47,42,51,43.3A1.44,1.44,0,0,0,51.47,45l1.79,1.52c1.38,1.16,1.37,2.18,0,3.35L51.5,51.34A1.43,1.43,0,0,0,51,53.06c.55,1.39,1.14,2.78,1.74,4.15a1.51,1.51,0,0,0,1.71.9c.74-.08,1.5-.13,2.24-.23,1.66-.22,2.44.48,2.35,2.13,0,.78-.08,1.55-.16,2.33a1.62,1.62,0,0,0,1,1.83c1.28.53,2.57,1,3.86,1.55a1.53,1.53,0,0,0,1.86-.54c.6-.73,1.22-1.46,1.84-2.19A1.75,1.75,0,0,1,70,63c.63.72,1.24,1.45,1.86,2.18a1.53,1.53,0,0,0,1.87.51c1-.39,2-.74,3-1.19,2-.91,2.12-1.14,1.83-3.32,0-.37-.09-.73-.14-1.1l-.28-1.22,1-1.07h3.49a2,2,0,0,0,2.43-1.66h0a10,10,0,0,0,1-3.55A2.08,2.08,0,0,0,85.14,50.56ZM83.72,54.1c-.14.27-.28.52-.39.78-.42,1-.7,1.14-1.78.91l-.33-.11c-1.42-.32-2-.53-3.77,1-.18.29-.55.45-.73.74a2.25,2.25,0,0,0-.48,1.13,24,24,0,0,0,.27,2.93c.07.54,0,.88-.56,1.08s-1.35.54-2,.85a.8.8,0,0,1-1.11-.3c-.59-.75-1.21-1.48-1.86-2.18a1.49,1.49,0,0,0-.86-.52c-1.74-.06-3.42-.22-4.64,1.62s-1.39,1.72-3.48.86c-.75-.3-1.11-.65-1-1.52a13.93,13.93,0,0,0,.15-2.42,2,2,0,0,0-.16-1,4.26,4.26,0,0,0-4.12-2.18c-2.67.29-2.66.28-3.61-2.29a.89.89,0,0,1,.3-1.19,25.6,25.6,0,0,0,2.23-1.94,2,2,0,0,0,.49-1.13,10.81,10.81,0,0,0,0-2,2,2,0,0,0-.4-1,7.38,7.38,0,0,0-1.09-1c-2-1.67-2-1.67-.85-4,0-.06,0-.13.08-.16.28-.17.57-.46.86-.47,1,0,2,.11,3,.14a1.35,1.35,0,0,0,.89-.2c1.18-1.17,2.74-2.18,2.07-4.26a2,2,0,0,1,0-.34c-.24-2.37-.54-1.81,1.59-2.74,1.72-.76,1.38-.82,2.44.61s2.23,2.48,4.17,2a.49.49,0,0,1,.17,0A1.64,1.64,0,0,0,70.91,35c.58-.72,1.18-1.42,1.8-2.11.16-.17.46-.4.61-.35a9.24,9.24,0,0,1,2.75,1.21c.33.27,0,1.31,0,2s0,1.15,0,1.73a1.06,1.06,0,0,0,.13.66,11.63,11.63,0,0,0,2.17,2.1,3.7,3.7,0,0,0,2,.1c2.59-.22,2.59-.24,3.52,2.2,0,.08.1.17.09.24-.08.33-.07.75-.27,1-.71.68-1.54,1.24-2.21,2a2.24,2.24,0,0,0-.56,1.35,5,5,0,0,0,.42,2.54,7.7,7.7,0,0,0,1.68,2l.69.58A3.66,3.66,0,0,1,83.72,54.1Z"/><path class="cls-4" d="M68.61,39.35a8.71,8.71,0,1,0,8.7,8.7A8.71,8.71,0,0,0,68.61,39.35Zm0,15.32a6.62,6.62,0,1,1,6.61-6.62A6.63,6.63,0,0,1,68.61,54.67Z"/><path class="cls-4" d="M96.18,70.24h0l-.51-.45c-.56-.47-.56-.9,0-1.36.24-.21.48-.42.74-.62a.71.71,0,0,0,.24-.9c-.22-.55-.46-1.09-.7-1.64a.68.68,0,0,0-.79-.42L94,65a.76.76,0,0,1-.78-.75,12,12,0,0,0,.06-1.34.78.78,0,0,0-.34-.59c-.56-.28-1.16-.5-1.75-.73a.63.63,0,0,0-.76.23c-.26.32-.53.63-.8.94a.75.75,0,0,1-1.12,0c-.26-.31-.53-.62-.79-.94a.62.62,0,0,0-.74-.2c-.61.24-1.22.5-1.82.77a.61.61,0,0,0-.35.68c0,.37.09.74.12,1.11a.74.74,0,0,1-.86.9L82.91,65a.64.64,0,0,0-.72.41c-.24.57-.47,1.14-.69,1.72a.61.61,0,0,0,.22.73l.77.66c.59.49.59.93,0,1.44l-.74.62a.6.6,0,0,0-.21.74c.24.6.49,1.19.75,1.78a.64.64,0,0,0,.73.39l1-.1c.71-.09,1,.21,1,.91,0,.34,0,.67-.07,1a.7.7,0,0,0,.43.78c.55.23,1.11.45,1.66.66a.65.65,0,0,0,.8-.22c.26-.32.53-.63.79-.94a.75.75,0,0,1,1.1,0c.27.3.53.62.8.93a.66.66,0,0,0,.8.22c.43-.17.86-.32,1.28-.51.87-.39.91-.49.79-1.43l-.06-.47-.12-.52.43-.46h1.5a.87.87,0,0,0,1-.72h0a4.48,4.48,0,0,0,.42-1.52A.89.89,0,0,0,96.18,70.24Zm-.61,1.52c-.06.11-.12.22-.17.33-.18.43-.3.49-.76.39l-.15,0a1.4,1.4,0,0,0-1.62.42c-.07.12-.23.19-.31.31a1,1,0,0,0-.2.49,8.93,8.93,0,0,0,.11,1.26c0,.23,0,.38-.24.46a9.28,9.28,0,0,0-.86.37.34.34,0,0,1-.47-.13c-.26-.33-.52-.64-.8-.94a.63.63,0,0,0-.37-.22c-.75,0-1.47-.1-2,.69s-.59.74-1.49.37c-.32-.13-.47-.28-.41-.65a6,6,0,0,0,.07-1,.87.87,0,0,0-.07-.43,1.83,1.83,0,0,0-1.77-.94c-1.15.12-1.14.12-1.55-1a.38.38,0,0,1,.13-.51c.33-.27.66-.54,1-.83a.94.94,0,0,0,.21-.49,5.17,5.17,0,0,0,0-.88.85.85,0,0,0-.17-.44,3.87,3.87,0,0,0-.47-.43c-.84-.71-.84-.71-.36-1.72,0,0,0-.06,0-.07s.24-.2.37-.2c.43,0,.87,0,1.3.06a.61.61,0,0,0,.39-.09c.5-.5,1.17-.93.89-1.83a.59.59,0,0,1,0-.14c-.1-1-.23-.78.68-1.18.74-.32.6-.35,1,.27a1.65,1.65,0,0,0,1.79.87h.08a.69.69,0,0,0,.71-.31c.25-.3.5-.61.77-.9.07-.08.2-.17.26-.15a4.07,4.07,0,0,1,1.18.52c.15.11,0,.56,0,.86s0,.49,0,.74a.42.42,0,0,0,.06.28,4.65,4.65,0,0,0,.93.9,1.57,1.57,0,0,0,.87,0c1.11-.1,1.11-.1,1.51.94,0,0,0,.08,0,.11s0,.32-.12.4c-.3.3-.66.54-1,.84a1,1,0,0,0-.24.58,2.2,2.2,0,0,0,.19,1.09,3.18,3.18,0,0,0,.71.87l.3.25A1.62,1.62,0,0,1,95.57,71.76Z"/><path class="cls-4" d="M89.08,65.43a3.74,3.74,0,1,0,3.73,3.73A3.74,3.74,0,0,0,89.08,65.43Zm0,6.57a2.84,2.84,0,1,1,2.84-2.84A2.84,2.84,0,0,1,89.08,72Z"/><path class="cls-4" d="M106.48,51.78h0c-.21-.19-.41-.36-.62-.53-.65-.55-.66-1.06,0-1.61.3-.24.58-.5.88-.74a.82.82,0,0,0,.29-1c-.27-.65-.55-1.3-.83-1.94a.81.81,0,0,0-.93-.51c-.47.06-.93.12-1.4.16a.91.91,0,0,1-.93-.88,14.11,14.11,0,0,0,.08-1.59,1,1,0,0,0-.4-.69,18.79,18.79,0,0,0-2.07-.86.73.73,0,0,0-.9.27l-.94,1.11a.89.89,0,0,1-1.33,0l-.94-1.1a.73.73,0,0,0-.87-.25c-.72.29-1.44.6-2.14.91a.72.72,0,0,0-.42.81c0,.44.1.87.14,1.31a.89.89,0,0,1-1,1.07q-.66,0-1.32-.09a.75.75,0,0,0-.85.48c-.29.68-.56,1.36-.82,2a.74.74,0,0,0,.26.87c.31.25.61.51.91.77.7.59.7,1.11,0,1.7l-.87.74a.73.73,0,0,0-.25.87c.28.71.58,1.41.89,2.11a.76.76,0,0,0,.86.46l1.14-.12q1.26-.16,1.2,1.08c0,.4,0,.79-.09,1.19a.82.82,0,0,0,.51.92c.65.28,1.31.54,2,.79a.79.79,0,0,0,1-.27c.3-.38.62-.75.94-1.11a.87.87,0,0,1,1.29,0c.32.36.63.73.94,1.1a.79.79,0,0,0,1,.26c.51-.19,1-.38,1.52-.6,1-.47,1.07-.58.93-1.69,0-.19-.05-.37-.07-.56l-.14-.61.5-.55h1.77c.72,0,1-.15,1.24-.85h0a5.27,5.27,0,0,0,.5-1.8A1.06,1.06,0,0,0,106.48,51.78Zm-.72,1.79-.2.4c-.21.5-.35.58-.9.46l-.17,0a1.64,1.64,0,0,0-1.91.49c-.09.15-.28.23-.37.38a1,1,0,0,0-.24.57,10.57,10.57,0,0,0,.13,1.49c0,.27,0,.45-.29.55a9.87,9.87,0,0,0-1,.43.4.4,0,0,1-.56-.16c-.3-.38-.62-.74-.95-1.1a.7.7,0,0,0-.43-.26c-.88,0-1.74-.12-2.36.82s-.7.87-1.76.44c-.38-.16-.57-.33-.49-.78A7.2,7.2,0,0,0,94.33,56a1,1,0,0,0-.08-.51,2.17,2.17,0,0,0-2.09-1.11c-1.36.15-1.35.15-1.83-1.16a.44.44,0,0,1,.15-.6,13.23,13.23,0,0,0,1.13-1,1,1,0,0,0,.25-.58,6,6,0,0,0,0-1,1,1,0,0,0-.21-.52,4.49,4.49,0,0,0-.55-.51c-1-.84-1-.84-.43-2,0,0,0-.07,0-.08s.29-.24.44-.24c.51,0,1,.06,1.54.07a.66.66,0,0,0,.45-.1c.6-.59,1.39-1.11,1.06-2.16a.55.55,0,0,1,0-.18c-.13-1.2-.28-.92.8-1.39.88-.38.71-.41,1.24.32a2,2,0,0,0,2.12,1h.09a.83.83,0,0,0,.84-.36c.29-.37.6-.72.91-1.07.08-.09.24-.21.31-.18a4.43,4.43,0,0,1,1.4.62c.17.13,0,.66,0,1s0,.58,0,.88a.51.51,0,0,0,.07.33,5.85,5.85,0,0,0,1.1,1.07,1.86,1.86,0,0,0,1,.05c1.32-.11,1.32-.12,1.79,1.12,0,0,.05.08,0,.12s0,.38-.14.48c-.35.35-.77.63-1.12,1a1.15,1.15,0,0,0-.28.69,2.57,2.57,0,0,0,.21,1.29,4.1,4.1,0,0,0,.85,1l.36.29A1.86,1.86,0,0,1,105.76,53.57Z"/><path class="cls-4" d="M98.09,46.09a4.42,4.42,0,1,0,4.42,4.42A4.42,4.42,0,0,0,98.09,46.09Zm0,7.77a3.36,3.36,0,1,1,3.36-3.35A3.36,3.36,0,0,1,98.09,53.86Z"/><path class="cls-4" d="M109.05,78.42a6.93,6.93,0,0,1-.93,1.66C108.41,79.62,108.73,79.06,109.05,78.42Z"/></svg>