<svg id="Layer_1" data-name="Layer 1" xmlns="http://www.w3.org/2000/svg" viewBox="0 0 147.29 171.71"><defs><style>.cls-1,.cls-3{fill:#009c9a;}.cls-2{fill:#fff;stroke:#fff;stroke-miterlimit:10;stroke-width:0.52px;}.cls-3{font-size:14px;font-family:Arial-BoldMT, Arial;font-weight:700;}</style></defs><circle class="cls-1" cx="73.64" cy="73.64" r="73.64"/><g id="tWWSyh.tif"><path class="cls-2" d="M72.73,45.27a14.52,14.52,0,0,1,4.41-.15A21.22,21.22,0,0,1,95.45,62.33,19.53,19.53,0,0,1,92.3,77.41c-1,1.49-2.07,3-3,4.54a15,15,0,0,0-2.17,7.65A20.52,20.52,0,0,1,87,91.67a2.9,2.9,0,0,1-2.67,2.73,10.91,10.91,0,0,0-1.29.07,8.33,8.33,0,0,0-1.36.63,4.39,4.39,0,0,0,1.35.51c2.08.07,3.15.74,3.14,2.1s-.89,1.9-3.08,2a2.44,2.44,0,0,0-.77,0,3,3,0,0,0-.63.51c.23.2.42.54.67.59.68.12,1.38.07,2.06.18a1.89,1.89,0,0,1,1.77,2,1.93,1.93,0,0,1-2,2c-1.76-.14-2.67.55-3.69,2-3.06,4.4-9.62,3.7-12.22-1a1.52,1.52,0,0,0-1.64-1,6.19,6.19,0,0,1-1.55,0,2,2,0,0,1-1.81-2.15,1.92,1.92,0,0,1,1.87-2c.47-.07,1,0,1.42-.07a2.35,2.35,0,0,0,.77-.48c-.27-.2-.51-.5-.81-.58-.46-.12-1,0-1.42-.12a2,2,0,0,1,.23-4c.47,0,1,0,1.42-.05.2,0,.53-.3.51-.4-.05-.25-.23-.59-.43-.65a5.41,5.41,0,0,0-1.28-.08,3,3,0,0,1-3.18-2.8,5.37,5.37,0,0,1-.06-.9c.31-4.55-1.56-8.3-4.2-11.83A20.69,20.69,0,0,1,68,46.29,30.7,30.7,0,0,1,72.73,45.27Zm1.8,45.86c2.64,0,5.28,0,7.92,0,.75,0,1.23-.15,1.21-1.07-.11-4.95,1.86-9.13,4.84-13,3.16-4.07,4.69-8.69,3.8-13.83C91,55.51,85.49,50.17,77.69,48.74a18,18,0,0,0-17.91,7.7c-3.86,5.8-3.61,14.17.31,19.26.76,1,1.43,2.06,2.12,3.11,2.22,3.34,3.71,6.93,3.52,11,0,.94.31,1.31,1.27,1.29C69.51,91.1,72,91.14,74.53,91.13Z"/><path class="cls-2" d="M55.45,45.73,53,48.34A4.83,4.83,0,0,0,52.3,47c-2.33-2.37-4.7-4.7-7-7.06-1-1-1.1-1.92-.34-2.58.91-.79,1.75-.46,2.51.29L54.81,45A7.68,7.68,0,0,1,55.45,45.73Z"/><path class="cls-2" d="M96.29,47.79l-2.24-2,6.39-6.53c.64-.65,1.25-1.32,1.94-1.91a1.53,1.53,0,0,1,2.22.13,1.38,1.38,0,0,1,0,2.09C101.84,42.34,99,45.08,96.29,47.79Z"/><path class="cls-2" d="M109.73,68.3c-1.73,0-3.45,0-5.18,0-.8,0-1.15-.17-1.16-1.06,0-2.06-.06-2.06,2-2.06h9.06c.26,0,.52,0,.78,0,1,.06,1.69.52,1.68,1.58s-.72,1.51-1.72,1.52h-5.44Z"/><path class="cls-2" d="M39.62,68.34c-1.73,0-3.46,0-5.19,0-1,0-1.81-.43-1.84-1.55s.78-1.57,1.8-1.58c3.55,0,7.1,0,10.64,0,.75,0,.94.3,1,1,.1,2.18.13,2.18-2.1,2.19-1.43,0-2.86,0-4.28,0Z"/><path class="cls-2" d="M76.35,38.49h-3.1c0-.4-.09-.81-.09-1.23q0-4.92,0-9.86c0-1.47.45-2.09,1.5-2.12s1.69.7,1.69,2.13C76.36,31.07,76.35,34.74,76.35,38.49Z"/><path class="cls-2" d="M77,52.75c0,1.59-.6,2.08-1.68,2.15A13.06,13.06,0,0,0,67.27,58a15.37,15.37,0,0,0-3.95,5.7c-.52,1.24-1.45,1.73-2.39,1.32s-1.18-1.27-.66-2.54c2.57-6.23,7.1-10,13.86-10.8a3.47,3.47,0,0,1,1.67.07A4.8,4.8,0,0,1,77,52.75Z"/></g><text class="cls-3" transform="translate(4.42 167.85)">NIEUWSGIERIGHEID</text></svg>