<svg id="Layer_1" data-name="Layer 1" xmlns="http://www.w3.org/2000/svg" viewBox="0 0 147.29 168.74"><defs><style>.cls-1{font-size:14px;font-family:Arial-BoldMT, Arial;font-weight:700;}.cls-1,.cls-2{fill:#8dbf30;}.cls-3{fill:none;stroke:#fff;stroke-miterlimit:1.86;stroke-width:7.74px;}</style></defs><text class="cls-1" transform="translate(14.14 165.42)">DECOMPOSITION</text><circle id="path3342-0-8-3" class="cls-2" cx="73.66" cy="73.66" r="73.52"/><g id="g4903"><g id="g4905"><path id="path4907" class="cls-3" d="M75.12,72.7a8.41,8.41,0,0,1-.23,1.14V74q3.06-.14,10.62-1.11a97.69,97.69,0,0,1,11.72-1,12.33,12.33,0,0,1,6.71,1.72,6,6,0,0,1,2.74,5.44,10.12,10.12,0,0,1-1.14,4.63,17.22,17.22,0,0,1-2.48,3.68,15.63,15.63,0,0,0-2.48,3.84,11.51,11.51,0,0,0-1.13,5,9.85,9.85,0,0,0,3.51,8,13.3,13.3,0,0,0,8.73,2.9,14.88,14.88,0,0,0,9.38-3,9.87,9.87,0,0,0,3.84-8.3,15.11,15.11,0,0,0-1-5.41,16.71,16.71,0,0,0-2.18-4.2,24.94,24.94,0,0,1-2.18-3.45,7.27,7.27,0,0,1-1-3.29c0-1.95,1-3.89,3-5.8q2.41-2.28,7.62-2.28a104.44,104.44,0,0,1,16,1.57c.13,0,.59.12,1.4.23s1.54.21,2.21.32a7.66,7.66,0,0,1,1.14.23"/></g></g><g id="g4200-8-6"><g id="g4160-0-9"><path id="path4162-85-3" class="cls-3" d="M72.2,75.24a7.58,7.58,0,0,1,.22-1.14V74q-3.06.14-10.61,1.11a98.41,98.41,0,0,1-11.73,1,12.35,12.35,0,0,1-6.71-1.73,6,6,0,0,1-2.73-5.44,9.93,9.93,0,0,1,1.14-4.62,16.71,16.71,0,0,1,2.47-3.68,15.9,15.9,0,0,0,2.48-3.85,11.51,11.51,0,0,0,1.14-5,9.83,9.83,0,0,0-3.52-8.05,13.27,13.27,0,0,0-8.73-2.9,14.85,14.85,0,0,0-9.37,3A9.86,9.86,0,0,0,22.4,52a15.33,15.33,0,0,0,1,5.41,17,17,0,0,0,2.18,4.2,24.94,24.94,0,0,1,2.18,3.45,7.27,7.27,0,0,1,1,3.29c0,1.95-1,3.89-3,5.8q-2.4,2.28-7.62,2.28A104.33,104.33,0,0,1,2.15,74.88c-.13,0-.6-.12-1.4-.23s-1.55-.21-2.22-.32a8.41,8.41,0,0,1-1.14-.23"/></g></g><g id="g4200-7-3-5"><g id="g4160-6-0-0"><path id="path4162-8-3-6" class="cls-3" d="M71.88,72.32a6.93,6.93,0,0,1,1.15.23h.13Q73,69.49,72.05,61.93a98.28,98.28,0,0,1-1-11.72A12.33,12.33,0,0,1,72.8,43.5a6,6,0,0,1,5.44-2.74,10,10,0,0,1,4.62,1.14,17,17,0,0,1,3.68,2.48,16,16,0,0,0,3.84,2.47A11.55,11.55,0,0,0,95.43,48a9.85,9.85,0,0,0,8-3.51,13.25,13.25,0,0,0,2.9-8.73,14.93,14.93,0,0,0-3-9.38,9.89,9.89,0,0,0-8.31-3.84,15.3,15.3,0,0,0-5.4,1,16.68,16.68,0,0,0-4.2,2.19,26.19,26.19,0,0,1-3.45,2.18,7.27,7.27,0,0,1-3.29,1c-2,0-3.89-1-5.8-3q-2.28-2.42-2.28-7.62a105.41,105.41,0,0,1,1.56-16,11.88,11.88,0,0,0,.23-1.4c.11-.8.22-1.54.33-2.21A6.42,6.42,0,0,1,73-2.48"/></g></g><g id="g4200-7-5-3-4"><g id="g4160-6-7-0-9"><path id="path4162-8-5-5-8" class="cls-3" d="M74.76,75.12a6.42,6.42,0,0,1-1.14-.23h-.13q.12,3.06,1.1,10.62a98.28,98.28,0,0,1,1,11.72,12.24,12.24,0,0,1-1.73,6.71,5.94,5.94,0,0,1-5.43,2.74,10,10,0,0,1-4.63-1.14,17,17,0,0,1-3.68-2.48,16,16,0,0,0-3.84-2.47,11.55,11.55,0,0,0-5-1.14,9.83,9.83,0,0,0-8,3.52,13.26,13.26,0,0,0-2.9,8.72,14.93,14.93,0,0,0,3,9.38,9.91,9.91,0,0,0,8.31,3.84,15.26,15.26,0,0,0,5.4-1,16.69,16.69,0,0,0,4.2-2.18,25.72,25.72,0,0,1,3.46-2.19,7.21,7.21,0,0,1,3.29-1q2.92,0,5.79,3Q76,124,76,129.21a105.41,105.41,0,0,1-1.56,16,11.88,11.88,0,0,0-.23,1.4c-.11.81-.22,1.54-.33,2.22a9.38,9.38,0,0,1-.22,1.14"/></g></g></svg>