<svg id="Layer_1" data-name="Layer 1" xmlns="http://www.w3.org/2000/svg" viewBox="0 0 151.63 167.36"><defs><style>.cls-1{font-size:14px;font-family:Arial-BoldMT, Arial;font-weight:700;}.cls-1,.cls-3{fill:#e9cc00;}.cls-2{letter-spacing:-0.02em;}.cls-4{fill:#fff;stroke:#fff;stroke-miterlimit:10;}</style></defs><text class="cls-1" transform="translate(1.27 165.42)">FINANCIA<tspan class="cls-2" x="66.88" y="0">L</tspan><tspan x="75.18" y="0" xml:space="preserve"> LITERAC</tspan><tspan class="cls-2" x="139.73" y="0">Y</tspan></text><circle class="cls-3" cx="75.81" cy="73.64" r="73.64"/><g id="c77n81.tif"><path class="cls-4" d="M88.87,117.15c-3.81.39-7.31,1-10.82,1.06-3.81.11-7.64-.16-11.46-.39-1.18-.08-1.54.23-1.63,1.37-.33,4.2-.36,4.2-4.61,4.2-1.48,0-3-.12-4.42,0-1.66.15-2.19-.6-2.24-2.11a56.31,56.31,0,0,0-.4-5.81,2.83,2.83,0,0,0-1.15-1.89,26.12,26.12,0,0,1-9.54-9.25,2.49,2.49,0,0,0-1.78-1c-6.21-.23-8.92-2.74-9.14-9a25.12,25.12,0,0,1,.67-7c.79-3.2,3.19-4.9,6.45-5.1a2.26,2.26,0,0,0,2.34-1.81,20.85,20.85,0,0,1,6-8.84c1-.85.91-1.49.38-2.56a32,32,0,0,1-2.25-5.73c-.6-2.21.16-3.38,2.34-4,5.76-1.55,11-.67,15.3,3.73a2.47,2.47,0,0,0,1.6.8c2-.13,4.09-.44,6.31-.7-1.26-5.54.07-10.08,5.38-12.6a9.19,9.19,0,0,1,10.56,1.55C90.57,55.58,91,59.83,89,64.57l2.92.86c7,2,13.21,5.28,17.95,11a2.08,2.08,0,0,0,1.75.54A8.49,8.49,0,0,0,118,70.32a4,4,0,0,0-1.25-4.19,2.54,2.54,0,0,0-3.39-.34,2.72,2.72,0,0,0-1.14,3.39c.08.23.28.44.26.65a10.79,10.79,0,0,1-.25,1.38c-.48-.21-1.14-.3-1.41-.66a4.75,4.75,0,0,1,.55-5.58,4.58,4.58,0,0,1,5.49-1c2.87,1.5,3.92,4.82,2.55,8.28A11.16,11.16,0,0,1,111.85,79a8.13,8.13,0,0,0,.34,1c5.17,10.76,2.77,21.61-6.48,29.17a11.28,11.28,0,0,1-2.43,1.74c-2.17,1-2.72,2.6-2.67,4.8,0,2-.25,4-.31,6,0,1.21-.58,1.67-1.75,1.65q-3.81-.06-7.6,0c-1.21,0-1.69-.51-1.74-1.68C89.15,120.2,89,118.69,88.87,117.15ZM63,121.53c.1-1.53.21-2.92.3-4.32.06-1,.41-1.66,1.64-1.47a63.42,63.42,0,0,0,24-.82c1.22-.28,1.75.25,1.79,1.46s.18,2.47.21,3.71c0,1,.42,1.5,1.49,1.46,1.59,0,3.18,0,4.77,0,.85,0,1.3-.23,1.33-1.18,0-1.53.35-3.07.27-4.58-.16-2.93.43-5.34,3.54-6.42a3.33,3.33,0,0,0,.73-.49c7.35-5.46,11.2-12.53,9.59-21.84-1.35-7.75-6.33-12.86-13-16.45-8.84-4.76-18.44-5.83-28.28-5.44-2.09.08-4.17.37-6.41.59a3.72,3.72,0,0,1,.29,1.09,14,14,0,0,1-.37,1.52,6.54,6.54,0,0,1-1.34-.86,8.24,8.24,0,0,1-.8-1.36,11.75,11.75,0,0,0-11.11-5.59c-5.1.22-5.65,1.14-3.48,5.7,1.31,2.76,3,5.33,4.42,8,.24.45,0,1.15,0,1.73a4.66,4.66,0,0,1-1.52-.79,26.57,26.57,0,0,1-1.82-2.74,18,18,0,0,0-6.59,9.31c-.5,1.64-1.18,2.37-3,2.3C36.56,84,34.43,85.5,34,88.56a29.17,29.17,0,0,0,0,8.55c.39,2.71,2.35,4,5.13,4.27a23,23,0,0,1,2.63,0,3,3,0,0,1,1.93,1,23.79,23.79,0,0,0,10.06,9.88,3,3,0,0,1,1.31,2c.29,1.92.24,3.88.47,5.81.07.51.67,1.34,1.07,1.37C58.63,121.61,60.69,121.53,63,121.53Zm17.23-70a8.12,8.12,0,0,0-7.74,10.27,1.69,1.69,0,0,0,1.83,1.45c3.76.17,7.52.42,11.26.79a1.68,1.68,0,0,0,2-1.14A8.11,8.11,0,0,0,80.19,51.56Z"/><path class="cls-4" d="M76.35,23.86a9.67,9.67,0,0,1,9.77,9.91,9.89,9.89,0,1,1-9.77-9.91Zm0,1.82a8,8,0,0,0-8.1,7.86,8,8,0,1,0,16.07.29A8,8,0,0,0,76.31,25.68Z"/><path class="cls-4" d="M57.37,79.25a4.25,4.25,0,1,1,0,8.5,4.24,4.24,0,0,1-4.24-4.27A4.13,4.13,0,0,1,57.37,79.25Zm2.37,4.31A2.38,2.38,0,1,0,55,83.41a2.35,2.35,0,0,0,2.21,2.46A2.38,2.38,0,0,0,59.74,83.56Z"/></g></svg>