<svg id="Layer_1" data-name="Layer 1" xmlns="http://www.w3.org/2000/svg" viewBox="0 0 147.29 188.97"><defs><style>.cls-1{font-size:14px;font-family:Arial-BoldMT, Arial;font-weight:700;}.cls-1,.cls-2{fill:#e9cc00;}.cls-3{fill:#fff;stroke:#fff;stroke-miterlimit:10;}</style></defs><text class="cls-1" transform="translate(29.7 168.42)">FINANCIËLE <tspan x="-15.17" y="16.8">GELETTERDHEID</tspan></text><circle class="cls-2" cx="73.64" cy="73.64" r="73.64"/><g id="c77n81.tif"><path class="cls-3" d="M86.7,117.15c-3.81.39-7.31,1-10.82,1.06-3.81.11-7.64-.16-11.46-.39-1.18-.08-1.54.23-1.63,1.37-.33,4.2-.36,4.2-4.61,4.2-1.48,0-3-.12-4.42,0-1.66.15-2.19-.6-2.24-2.11a56.31,56.31,0,0,0-.4-5.81A2.83,2.83,0,0,0,50,113.6a26.12,26.12,0,0,1-9.54-9.25,2.49,2.49,0,0,0-1.78-1c-6.21-.23-8.92-2.74-9.14-9a25.12,25.12,0,0,1,.67-7c.79-3.2,3.19-4.9,6.45-5.1A2.26,2.26,0,0,0,39,80.49a20.85,20.85,0,0,1,6-8.84c1-.85.91-1.49.38-2.56a32,32,0,0,1-2.25-5.73c-.6-2.21.16-3.38,2.34-4,5.76-1.55,11-.67,15.3,3.73a2.47,2.47,0,0,0,1.6.8c2-.13,4.09-.44,6.31-.7-1.26-5.54.07-10.08,5.38-12.6a9.19,9.19,0,0,1,10.56,1.55c3.84,3.41,4.22,7.66,2.25,12.4l2.91.86c7,2,13.22,5.28,18,11a2.08,2.08,0,0,0,1.75.54,8.49,8.49,0,0,0,6.36-6.65,4,4,0,0,0-1.25-4.19,2.54,2.54,0,0,0-3.39-.34A2.72,2.72,0,0,0,110,69.18c.08.23.28.44.26.65a10.79,10.79,0,0,1-.25,1.38c-.48-.21-1.14-.3-1.41-.66a4.75,4.75,0,0,1,.55-5.58,4.58,4.58,0,0,1,5.49-1c2.87,1.5,3.92,4.82,2.55,8.28A11.16,11.16,0,0,1,109.68,79a8.13,8.13,0,0,0,.34,1c5.17,10.76,2.77,21.61-6.48,29.17a11.28,11.28,0,0,1-2.43,1.74c-2.17,1-2.72,2.6-2.67,4.8,0,2-.25,4-.31,6,0,1.21-.58,1.67-1.75,1.65q-3.81-.06-7.6,0c-1.21,0-1.69-.51-1.74-1.68C87,120.2,86.82,118.69,86.7,117.15Zm-25.91,4.38c.1-1.53.21-2.92.3-4.32.06-1,.41-1.66,1.64-1.47a63.42,63.42,0,0,0,24.05-.82c1.22-.28,1.75.25,1.79,1.46s.18,2.47.21,3.71c0,1,.42,1.5,1.49,1.46,1.59,0,3.18,0,4.77,0,.85,0,1.3-.23,1.33-1.18,0-1.53.35-3.07.27-4.58-.16-2.93.43-5.34,3.54-6.42a3.33,3.33,0,0,0,.73-.49c7.35-5.46,11.2-12.53,9.58-21.84-1.34-7.75-6.32-12.86-13-16.45-8.84-4.76-18.44-5.83-28.28-5.44-2.09.08-4.17.37-6.41.59a3.72,3.72,0,0,1,.29,1.09,14,14,0,0,1-.37,1.52,6.54,6.54,0,0,1-1.34-.86,8.24,8.24,0,0,1-.8-1.36c-2.59-4.08-6.46-5.79-11.12-5.59-5.09.22-5.64,1.14-3.47,5.7,1.31,2.76,3,5.33,4.42,8,.24.45,0,1.15,0,1.73a4.66,4.66,0,0,1-1.52-.79,26.57,26.57,0,0,1-1.82-2.74,18,18,0,0,0-6.59,9.31c-.5,1.64-1.18,2.37-3,2.3-3.08-.11-5.2,1.41-5.66,4.47a29.17,29.17,0,0,0,0,8.55c.39,2.71,2.35,4,5.13,4.27a23,23,0,0,1,2.63,0,3,3,0,0,1,1.93,1,23.79,23.79,0,0,0,10.06,9.88,3,3,0,0,1,1.31,2c.29,1.92.23,3.88.47,5.81.07.51.67,1.34,1.07,1.37C56.46,121.61,58.52,121.53,60.79,121.53ZM78,51.56a8.12,8.12,0,0,0-7.73,10.27,1.69,1.69,0,0,0,1.83,1.45c3.76.17,7.52.42,11.26.79a1.68,1.68,0,0,0,2-1.14A8.11,8.11,0,0,0,78,51.56Z"/><path class="cls-3" d="M74.18,23.86A9.67,9.67,0,0,1,84,33.77a9.89,9.89,0,1,1-9.77-9.91Zm0,1.82A8,8,0,0,0,66,33.54a8,8,0,1,0,16.07.29A8,8,0,0,0,74.14,25.68Z"/><path class="cls-3" d="M55.2,79.25a4.25,4.25,0,1,1,0,8.5,4.26,4.26,0,0,1-4.25-4.27A4.15,4.15,0,0,1,55.2,79.25Zm2.37,4.31a2.38,2.38,0,1,0-4.75-.15A2.35,2.35,0,0,0,55,85.87,2.38,2.38,0,0,0,57.57,83.56Z"/></g></svg>