<svg id="Layer_1" data-name="Layer 1" xmlns="http://www.w3.org/2000/svg" viewBox="0 0 146.91 167.36"><defs><style>.cls-1,.cls-2{fill:#e9cc00;}.cls-2{font-size:14px;font-family:Arial-BoldMT, Arial;font-weight:700;}.cls-3{letter-spacing:-0.02em;}.cls-4,.cls-5{fill:none;stroke:#fff;stroke-miterlimit:10;}.cls-4{stroke-width:2.23px;}.cls-5{stroke-width:1.87px;}.cls-6{fill:#fff;}</style></defs><circle class="cls-1" cx="73.3" cy="73.3" r="73.3"/><text class="cls-2" transform="translate(25.23 165.42)">ICT LITERAC<tspan class="cls-3" x="87.1" y="0">Y</tspan></text><rect class="cls-4" x="35.34" y="27.34" width="78.42" height="50.97" rx="4.93"/><rect class="cls-5" x="50.53" y="78.31" width="45.58" height="7.56"/><path class="cls-6" d="M121,112.31H25.13a2.44,2.44,0,0,1-2.28-3.3l8.46-22.57a2.45,2.45,0,0,1,2.29-1.58h78.49a2.42,2.42,0,0,1,2.27,1.55L123.23,109A2.44,2.44,0,0,1,121,112.31Z"/><polygon class="cls-1" points="92.7 106.97 51.71 107.19 53.47 99.15 91.7 99.15 92.7 106.97"/></svg>