<svg id="Layer_1" data-name="Layer 1" xmlns="http://www.w3.org/2000/svg" viewBox="0 0 147.29 167.36"><defs><style>.cls-1{font-size:14px;font-family:Arial-BoldMT, Arial;font-weight:700;}.cls-1,.cls-3{fill:#009c9a;}.cls-2{letter-spacing:-0.07em;}.cls-4,.cls-5{fill:#fff;stroke:#fff;stroke-miterlimit:10;}.cls-5{stroke-linecap:round;stroke-width:3px;}</style></defs><text class="cls-1" transform="translate(38.38 165.42)">INITI<tspan class="cls-2" x="30.33" y="0">A</tspan><tspan x="39.4" y="0">TIVE</tspan></text><circle class="cls-3" cx="73.64" cy="73.64" r="73.64"/><g id="uvmZx2.tif"><path class="cls-4" d="M60.48,75.65V72.77q0-15.91,0-31.84a14.92,14.92,0,0,1,.39-4.18A6.57,6.57,0,0,1,73.6,38.66c.16,3.56.06,7.13.08,10.7v3c1.62,0,3.27-.44,4.46.11,1.93.89,3.39,2.91,5.35,3.57s4.24-.23,6.2.28c1.34.34,2.37,1.91,3.79,3.15a17.62,17.62,0,0,1,2.45-.54c4-.43,7.29,2.15,7.37,6.26.18,9.78.07,19.57.08,29.36a2,2,0,0,1-.1.73c-2.42,6.22-4.15,12.55-3.07,19.46a16.87,16.87,0,0,1-1.8.17,16.35,16.35,0,0,1-1.64-.2c0-4.92-.79-9.81,1.27-14.49a26.29,26.29,0,0,0,2-11.38c-.16-7.13,0-14.27,0-21.4,0-.66,0-1.33,0-2-.16-1.92-1.25-3.17-3.14-3.19a3,3,0,0,0-3.26,3.31c-.06,3.13,0,6.27,0,9.34-3.18.83-3.43.66-3.43-2.18,0-3.15,0-6.31,0-9.46,0-2.91-1.13-4.32-3.31-4.27s-3.12,1.43-3.13,4.19c0,3.4,0,6.8,0,10.2,0,1.31-.28,2-1.77,2s-1.72-.83-1.71-2.06q.06-6.72,0-13.43c0-2.67-1.19-4.19-3.17-4.24s-3.3,1.53-3.3,4.32c0,5,0,9.94,0,14.85-3.05,1-3.44.78-3.44-2.23q0-15.8,0-31.6c0-3.56-1-5.18-3.22-5.19S63.77,37.4,63.77,41q0,21,0,42.05V85.7l-.67.44c-1.38-1.51-3.06-2.84-4.07-4.56-1.93-3.28-3.46-6.79-5.19-10.19-1.19-2.33-3-3.13-4.76-2.21s-2.16,2.79-1,5.19c1.91,3.86,3.81,7.73,5.83,11.54a8.92,8.92,0,0,0,2.2,2.62c3.77,3.11,7.57,6.19,11.45,9.16,2,1.52,3.06,3.18,2.88,5.85-.25,3.69-.06,7.42-.06,11.25H67c0-3.64-.08-7.27,0-10.89a3.75,3.75,0,0,0-1.69-3.56c-1.55-1.1-2.84-2.62-4.48-3.54-8.8-4.92-12.49-13.59-16.41-22.09A6.63,6.63,0,0,1,56.4,68.88c1.25,2.22,2.4,4.51,3.6,6.76C60,75.67,60.14,75.65,60.48,75.65Z"/></g><line class="cls-5" x1="48.14" y1="25.28" x2="55.83" y2="32.97"/><line class="cls-5" x1="85.77" y1="26.17" x2="78.09" y2="33.86"/><line class="cls-5" x1="62.07" y1="17.63" x2="63.43" y2="28.42"/><line class="cls-5" x1="74.4" y1="17.64" x2="72.88" y2="28.41"/></svg>