<svg id="Layer_1" data-name="Layer 1" xmlns="http://www.w3.org/2000/svg" viewBox="0 0 147.29 167.36"><defs><style>.cls-1{font-size:14px;font-family:Arial-BoldMT, Arial;font-weight:700;}.cls-1,.cls-3{fill:#009c9a;}.cls-2{letter-spacing:-0.02em;}.cls-4{fill:#fff;}</style></defs><text class="cls-1" transform="translate(28.65 165.42)">LEADERSHI<tspan class="cls-2" x="80.9" y="0">P</tspan></text><circle class="cls-3" cx="73.64" cy="73.64" r="73.64"/><g id="gmIDow.tif"><path class="cls-4" d="M48.71,38.3c.3-1.7.54-3.3.88-4.87s.87-2.08,2.62-2.08H94.92c1.93,0,2.38.34,2.79,2.21.33,1.53.56,3.08.85,4.75,3.42,0,6.79,0,10.16,0s3.69-.12,4.11,3.76a22.75,22.75,0,0,1-.71,9.1C109.84,58.67,104.31,62.42,97,64c-2.11.45-4.29.51-6.43.83a4,4,0,0,0-1.75.74c-3,2.36-6,4.79-9,7.13a2,2,0,0,0-1,1.72c0,3.6,0,7.21,0,10.81,0,.93.29,1.34,1.24,1.24,3.28-.32,5.15,1.31,6.38,4.26,2,4.85,4.3,9.61,6.44,14.42a1.82,1.82,0,0,0,1.64,1.29,4.78,4.78,0,0,1-.49,9.52q-20.42,0-40.82,0a4.77,4.77,0,0,1-.63-9.49A2,2,0,0,0,54.43,105c2.22-5,4.53-10,6.74-15a5.31,5.31,0,0,1,5.48-3.54c1.76,0,1.76,0,1.76-1.77,0-3.43,0-6.85,0-10.27a2.47,2.47,0,0,0-.87-1.6q-4.47-3.69-9-7.24a4,4,0,0,0-1.75-.76c-3.14-.57-6.39-.74-9.41-1.67-9.45-2.9-13.37-10.52-13-19.45a29.12,29.12,0,0,1,.37-3.22c.29-1.74.76-2.13,2.5-2.14H48.71Zm24.92-3.23h0c-6.48,0-13,0-19.46,0-.86,0-1.27.19-1.42,1.14A31.54,31.54,0,0,0,53,47.62c2.18,10.28,8.65,17.26,17.4,22.46a3,3,0,0,0,1.15.33c3.25.38,6.25-.13,8.76-2.45.49-.46,1.09-.8,1.62-1.22C91.63,59,96.1,49,94.53,36.49c-.15-1.17-.59-1.45-1.71-1.44C86.43,35.1,80,35.07,73.63,35.07ZM89.18,106.2a7.16,7.16,0,0,0-.2-.74c-2.13-4.73-4.27-9.44-6.37-14.18a1.92,1.92,0,0,0-2.06-1.14c-4.59,0-9.19,0-13.78,0a2.15,2.15,0,0,0-2.26,1.48c-2,4.58-4.1,9.12-6.15,13.68a6.69,6.69,0,0,0-.27.91Zm3.54-45.31c1.14-.16,2.07-.26,3-.42,9.06-1.56,14.11-7.8,13.6-16.73-.07-1.2-.32-1.86-1.79-1.77-2.52.15-5.05.08-7.57,0-1,0-1.42.2-1.47,1.31a33.86,33.86,0,0,1-5.14,16.45C93.15,60,93,60.35,92.72,60.89Zm-38.14-.14A35.47,35.47,0,0,1,48.7,42.83c0-.29-.67-.77-1.05-.78-2.33-.07-4.68,0-7,0H38.29C36.74,52.23,42.49,60.12,54.58,60.75Zm19,49.3H54.44a3.19,3.19,0,0,0-1.32.12,1.4,1.4,0,0,0-.72,1c0,.32.39.75.73,1a2.1,2.1,0,0,0,1,.11H92.83a2.59,2.59,0,0,0,1.19-.09c.38-.2.85-.65.85-1s-.48-.8-.86-1a2.58,2.58,0,0,0-1.19-.09ZM72.11,86.41a13,13,0,0,1,1.56,0c1.2.18,1.59-.31,1.51-1.49-.09-1.52,0-3.05,0-4.58,0-2,0-4,0-6-3-.52-3-.49-3,2.31v9.75Z"/><path class="cls-4" d="M78.55,51.63c0,2.83,0,5.66,0,8.5,0,1.63-.43,2-2.1,2.07-1.12,0-2.25,0-3.37,0-1.91,0-2.31-.4-2.32-2.28,0-3.28,0-6.56,0-9.85,0-1.12-.33-1.46-1.45-1.44-2.45.06-2.7-.24-2.71-2.69V42.71a1.63,1.63,0,0,1,1.79-1.87q4.19,0,8.37,0c1.22,0,1.78.68,1.77,1.88Zm-4.67,7.3c1.05.33,1.6.26,1.59-.91,0-4.32,0-8.63,0-13,0-.8-.23-1.14-1.07-1.1q-1.75.08-3.51,0c-1.31,0-1.26.59-.89,1.59.58,0,1.12,0,1.65,0,1.79,0,2.21.46,2.22,2.24,0,1.53,0,3.06,0,4.59Z"/></g></svg>