<svg id="Layer_1" data-name="Layer 1" xmlns="http://www.w3.org/2000/svg" viewBox="0 0 147.29 173.98"><defs><style>.cls-1,.cls-2{fill:#e9cc00;}.cls-2{font-size:14px;font-family:Arial-BoldMT, Arial;font-weight:700;}.cls-3{fill:#fff;stroke:#fff;stroke-miterlimit:10;}</style></defs><circle class="cls-1" cx="73.64" cy="73.64" r="73.64"/><text class="cls-2" transform="translate(14.53 167.85)">GELETTERDHEID</text><path class="cls-3" d="M71.91,78.42H61.23L57,67.37H37.54l-4,11H23.1L42.05,29.77H52.43ZM53.83,59.17l-6.7-18.05L40.55,59.17Z"/><path class="cls-3" d="M69.2,20.78h9.14a28.45,28.45,0,0,1,4,.21,6.29,6.29,0,0,1,2.39.88,5.79,5.79,0,0,1,1.76,1.79,4.66,4.66,0,0,1,.7,2.5,4.76,4.76,0,0,1-.87,2.76A5.35,5.35,0,0,1,84,30.8a6,6,0,0,1,3.22,1.93A4.94,4.94,0,0,1,88.36,36a5.94,5.94,0,0,1-.73,2.83,5.77,5.77,0,0,1-2,2.2,6.85,6.85,0,0,1-3.09,1c-.77.07-2.63.12-5.57.14H69.2Zm4.62,3.56v4.94h3c1.8,0,2.91,0,3.35-.07a3.23,3.23,0,0,0,1.87-.77,2.18,2.18,0,0,0,.67-1.67,2.24,2.24,0,0,0-.58-1.61,2.76,2.76,0,0,0-1.74-.75c-.46-.05-1.77-.07-4-.07Zm0,8.5v5.71H78.1a22,22,0,0,0,3.16-.13,2.94,2.94,0,0,0,1.68-.85,2.53,2.53,0,0,0,.65-1.82,2.68,2.68,0,0,0-.5-1.63,2.89,2.89,0,0,0-1.45-1,17,17,0,0,0-4.09-.3Z"/><path class="cls-3" d="M117.25,65.4l6.94,2.19q-1.6,5.8-5.31,8.62a16.69,16.69,0,0,1-21-2Q93.34,69.38,93.34,61q0-8.85,4.57-13.74a15.64,15.64,0,0,1,12-4.89,14.75,14.75,0,0,1,10.56,3.84,14.14,14.14,0,0,1,3.62,6.52L117,54.46a7.32,7.32,0,0,0-7.46-6,8.06,8.06,0,0,0-6.39,2.83c-1.64,1.88-2.45,4.93-2.45,9.15q0,6.72,2.41,9.57a7.85,7.85,0,0,0,6.28,2.85,7.17,7.17,0,0,0,4.9-1.81A10.43,10.43,0,0,0,117.25,65.4Z"/><path class="cls-3" d="M39.48,91.13h9.26a18.11,18.11,0,0,1,4.78.48,8.33,8.33,0,0,1,3.78,2.31A11,11,0,0,1,59.7,98a18.77,18.77,0,0,1,.82,5.93,16.65,16.65,0,0,1-.77,5.35,11.06,11.06,0,0,1-2.69,4.43,9,9,0,0,1-3.56,2,15.1,15.1,0,0,1-4.48.53H39.48Zm5.07,4.24V112h3.78a13.83,13.83,0,0,0,3.07-.24,4.6,4.6,0,0,0,2-1,5.32,5.32,0,0,0,1.33-2.42,16.54,16.54,0,0,0,.51-4.6,15.11,15.11,0,0,0-.51-4.47,5.89,5.89,0,0,0-1.44-2.43A4.91,4.91,0,0,0,51,95.61a23,23,0,0,0-4.16-.24Z"/><path class="cls-3" d="M77.53,128V97.17h22.84v5.21H83.75v6.83H99.22v5.19H83.75v8.38H101V128Z"/></svg>