<svg id="Layer_1" data-name="Layer 1" xmlns="http://www.w3.org/2000/svg" viewBox="0 0 147.29 166.94"><defs><style>.cls-1,.cls-2{fill:#e9cc00;}.cls-2{font-size:14px;font-family:Arial-BoldMT, Arial;font-weight:700;}.cls-3{letter-spacing:-0.02em;}.cls-4{fill:#fff;stroke:#fff;stroke-miterlimit:10;}</style></defs><circle class="cls-1" cx="73.64" cy="73.64" r="73.64"/><text class="cls-2" transform="translate(33.19 165.42)">NUMERAC<tspan class="cls-3" x="71.55" y="0">Y</tspan></text><path class="cls-4" d="M55.77,62.92H49.08V37.7a23.12,23.12,0,0,1-8.65,5.07V36.7a19.45,19.45,0,0,0,5.7-3.25,12.41,12.41,0,0,0,4.21-5.59h5.43Z"/><path class="cls-4" d="M83.79,48.42v4.8H65.67a12.51,12.51,0,0,1,1.77-5.16,34.38,34.38,0,0,1,5.81-6.47,37.2,37.2,0,0,0,4.29-4.41A5.71,5.71,0,0,0,78.61,34a3.58,3.58,0,0,0-.93-2.65,3.48,3.48,0,0,0-2.57-.93,3.41,3.41,0,0,0-2.57,1,5,5,0,0,0-1.11,3.24l-5.15-.52q.47-4.26,2.89-6.12a9.69,9.69,0,0,1,6.07-1.86,8.79,8.79,0,0,1,6.27,2.15,7.07,7.07,0,0,1,2.28,5.36,9.37,9.37,0,0,1-.65,3.46,14.31,14.31,0,0,1-2.07,3.45A32.63,32.63,0,0,1,77.69,44q-2.46,2.25-3.1,3a8.53,8.53,0,0,0-1.06,1.44Z"/><path class="cls-4" d="M95.5,78.88l7.44-.9a7,7,0,0,0,1.91,4.35,5.25,5.25,0,0,0,3.78,1.5,5.18,5.18,0,0,0,4-1.8,7,7,0,0,0,1.63-4.87,6.51,6.51,0,0,0-1.56-4.59,5,5,0,0,0-3.8-1.7,13.15,13.15,0,0,0-3.53.58l.85-6.26A6.76,6.76,0,0,0,111,63.83,4.83,4.83,0,0,0,112.62,60a4.15,4.15,0,0,0-4.4-4.43A4.63,4.63,0,0,0,104.85,57a6.46,6.46,0,0,0-1.69,4l-7.09-1.21a16.07,16.07,0,0,1,2.23-5.81,10,10,0,0,1,4.16-3.41,14,14,0,0,1,6-1.25,11.9,11.9,0,0,1,9.08,3.61,9.41,9.41,0,0,1,2.82,6.67q0,5.28-5.77,8.42a9.39,9.39,0,0,1,5.51,3.31,9.61,9.61,0,0,1,2.06,6.21,12,12,0,0,1-3.85,9,14.38,14.38,0,0,1-18.62.58A12.26,12.26,0,0,1,95.5,78.88Z"/><path class="cls-4" d="M71.24,90.21V86.1H62.9V82.68l8.84-12.94H75V82.67h2.53V86.1H75v4.11Zm0-7.54v-7l-4.68,7Z"/><path class="cls-4" d="M25.51,88.91l4.38-.45A3.79,3.79,0,0,0,31,90.82a3,3,0,0,0,4.47-.25,5.16,5.16,0,0,0,1-3.38,4.61,4.61,0,0,0-1-3.18A3.17,3.17,0,0,0,33,83a4.5,4.5,0,0,0-3.4,1.68L26,84.11l2.26-12H39.94v4.13h-8.3L31,80.18a6.73,6.73,0,0,1,8,1.39,7.74,7.74,0,0,1,2,5.54,8.26,8.26,0,0,1-1.64,5.06,7.3,7.3,0,0,1-6.23,3,7.78,7.78,0,0,1-5.19-1.7A7.06,7.06,0,0,1,25.51,88.91Z"/><path class="cls-4" d="M93.9,101.54l-4.72.52a3.38,3.38,0,0,0-.9-2.15,2.61,2.61,0,0,0-1.88-.69,3.19,3.19,0,0,0-2.61,1.38q-1.07,1.4-1.34,5.77A5.69,5.69,0,0,1,87,104.22a6.93,6.93,0,0,1,5.22,2.32,8.43,8.43,0,0,1,2.17,6,8.61,8.61,0,0,1-2.28,6.25,8.35,8.35,0,0,1-12.2-.63q-2.47-3-2.47-9.8,0-7,2.58-10.06a8.31,8.31,0,0,1,6.7-3.09,7.12,7.12,0,0,1,4.79,1.62A7.64,7.64,0,0,1,93.9,101.54Zm-11,10.61A5.56,5.56,0,0,0,84,115.82a3.22,3.22,0,0,0,2.5,1.29,2.82,2.82,0,0,0,2.25-1.06,5.32,5.32,0,0,0,.9-3.46,5.57,5.57,0,0,0-1-3.63,3.12,3.12,0,0,0-4.8,0A4.79,4.79,0,0,0,82.86,112.15Z"/></svg>