<svg id="Layer_1" data-name="Layer 1" xmlns="http://www.w3.org/2000/svg" viewBox="0 0 153.27 166.94"><defs><style>.cls-1{font-size:14px;font-family:Arial-BoldMT, Arial;font-weight:700;}.cls-1,.cls-3{fill:#e9cc00;}.cls-2{letter-spacing:-0.02em;}.cls-4{fill:#fff;stroke:#fff;stroke-miterlimit:10;}</style></defs><text class="cls-1" transform="translate(0.79 165.42)">SCIENTIFIC LITERAC<tspan class="cls-2" x="142.33" y="0">Y</tspan></text><circle class="cls-3" cx="76.64" cy="73.64" r="73.64"/><path class="cls-4" d="M67.48,50.45c-1,0-1.88,0-2.72,0-1.2,0-1.87-.64-1.88-1.62s.69-1.61,1.87-1.62c4,0,8,0,12,0H88.39c1,0,1.76.31,2,1.4a1.58,1.58,0,0,1-1.59,1.86c-.92.06-1.84,0-2.9,0,0,.52-.09.95-.09,1.37,0,6.4,0,12.79,0,19.18a10.2,10.2,0,0,0,.9,3.74c2.9,6.86,5.91,13.66,8.83,20.51,2.84,6.65,5.69,13.31,7.22,20.43.14.67.25,1.35.34,2,.57,4.31-1.13,7.48-4.86,9.61a29.53,29.53,0,0,1-11.92,3.4,81.18,81.18,0,0,1-21.63-.35,35.93,35.93,0,0,1-8.55-2.53c-5.15-2.3-6.8-5.87-5.76-11.43A83.12,83.12,0,0,1,56,99.51c3.36-7.93,6.81-15.82,10.23-23.73a15.84,15.84,0,0,0,1.33-6.71c-.11-5.7,0-11.41,0-17.11ZM76.62,95.9c-4.81,0-9.62,0-14.43,0a1.43,1.43,0,0,0-1.62,1c-1.35,3.46-3,6.84-4.13,10.37a113.37,113.37,0,0,0-3,11.09c-.61,2.71.72,4.82,3.11,6a27.3,27.3,0,0,0,6.69,2.4,72,72,0,0,0,26.27.11,27.75,27.75,0,0,0,7.16-2.47c2.79-1.37,3.61-3.47,3.15-6.56-.13-.87-.28-1.75-.49-2.62C97.79,108.91,95.24,103,92.75,97A1.55,1.55,0,0,0,91,95.88C86.23,95.92,81.42,95.9,76.62,95.9Zm5.9-45.44c-3.59,0-7,0-10.37,0-1.1,0-1.45.26-1.44,1.4.05,6.11.09,12.22,0,18.33a16.24,16.24,0,0,1-1,5.31c-1.46,3.89-3.18,7.69-4.81,11.52-.76,1.81-1.57,3.6-2.41,5.53H90.72c-.21-.54-.36-.94-.54-1.34C88,86.09,85.8,81,83.64,75.91a15.15,15.15,0,0,1-1.15-6.15c.07-5.94,0-11.89,0-17.84Z"/><path class="cls-4" d="M72.34,33.57a6.2,6.2,0,1,1-6.09-6.27A6.21,6.21,0,0,1,72.34,33.57Zm-6.17-3a2.95,2.95,0,1,0,2.91,2.94A2.94,2.94,0,0,0,66.17,30.57Z"/><path class="cls-4" d="M82.29,45.43a5.22,5.22,0,0,1-5.22-5.36,5.27,5.27,0,1,1,5.22,5.36Zm2.08-5.22a2.06,2.06,0,0,0-2-2.11,2,2,0,0,0-2,1.95,2,2,0,0,0,2,2.13A2.09,2.09,0,0,0,84.37,40.21Z"/><path class="cls-4" d="M75.31,21.06a5,5,0,1,1,5,5A5,5,0,0,1,75.31,21.06Zm5-1.78a1.74,1.74,0,0,0-.09,3.48,1.75,1.75,0,0,0,1.82-1.69A1.77,1.77,0,0,0,80.32,19.28Z"/></svg>