<svg id="Layer_1" data-name="Layer 1" xmlns="http://www.w3.org/2000/svg" viewBox="0 0 161.31 188.84"><defs><style>.cls-1{fill:#e9cc00;}.cls-2{fill:#fff;stroke:#fff;stroke-miterlimit:10;}</style></defs><path class="cls-1" d="M3.46,167.85l-2.4-10H3.14l1.51,6.89,1.83-6.89h2.4l1.76,7,1.54-7h2l-2.44,10H9.64l-2-7.5-2,7.5Z"/><path class="cls-1" d="M15.25,167.85v-10h7.43v1.7H17.27v2.22h5v1.69h-5v2.73h5.6v1.69Z"/><path class="cls-1" d="M26.84,167.85v-8.33h-3v-1.7h8v1.7h-3v8.33Z"/><path class="cls-1" d="M33.14,167.85v-10h7.43v1.7H35.16v2.22h5v1.69h-5v2.73h5.6v1.69Z"/><path class="cls-1" d="M42.5,167.85v-10h2l4.1,6.7v-6.7h1.88v10h-2l-4-6.54v6.54Z"/><path class="cls-1" d="M52.07,164.58l2-.19a2.44,2.44,0,0,0,.72,1.46,2.7,2.7,0,0,0,2.94.05,1.25,1.25,0,0,0,.5-1,.9.9,0,0,0-.21-.6,1.69,1.69,0,0,0-.73-.44c-.23-.08-.77-.22-1.62-.43a5.57,5.57,0,0,1-2.28-1,2.61,2.61,0,0,1-.92-2,2.55,2.55,0,0,1,.43-1.43,2.7,2.7,0,0,1,1.25-1,5.07,5.07,0,0,1,2-.35,4.22,4.22,0,0,1,2.84.83,2.94,2.94,0,0,1,1,2.21l-2,.09a1.68,1.68,0,0,0-.56-1.11,2,2,0,0,0-1.28-.34,2.33,2.33,0,0,0-1.38.36.73.73,0,0,0-.32.62.77.77,0,0,0,.3.61,5.44,5.44,0,0,0,1.86.67,9.44,9.44,0,0,1,2.18.72,2.74,2.74,0,0,1,1.11,1,3,3,0,0,1-1.43,4.33,5.74,5.74,0,0,1-2.18.36,4.32,4.32,0,0,1-2.92-.88A3.82,3.82,0,0,1,52.07,164.58Z"/><path class="cls-1" d="M68.34,164.16l2,.62a4.38,4.38,0,0,1-1.5,2.44,4.71,4.71,0,0,1-5.95-.57,5.24,5.24,0,0,1-1.28-3.73A5.48,5.48,0,0,1,62.86,159a4.4,4.4,0,0,1,3.4-1.39,4.17,4.17,0,0,1,3,1.09,4,4,0,0,1,1,1.85l-2,.47a2.06,2.06,0,0,0-2.11-1.68,2.28,2.28,0,0,0-1.81.8,4,4,0,0,0-.7,2.59,4.18,4.18,0,0,0,.69,2.71,2.21,2.21,0,0,0,1.78.81,2,2,0,0,0,1.38-.52A3,3,0,0,0,68.34,164.16Z"/><path class="cls-1" d="M72,167.85v-10h2v4h4v-4h2v10H78v-4.39h-4v4.39Z"/><path class="cls-1" d="M91.18,167.85H89l-.87-2.28h-4l-.83,2.28H81.13l3.9-10h2.14Zm-3.72-4-1.38-3.72-1.36,3.72Z"/><path class="cls-1" d="M92.26,167.85v-10H95.5a11.9,11.9,0,0,1,2.41.15,2.66,2.66,0,0,1,1.44,1,3.13,3.13,0,0,1,.58,2,3.32,3.32,0,0,1-.33,1.55,2.86,2.86,0,0,1-.85,1,3,3,0,0,1-1,.47,11.34,11.34,0,0,1-2.1.14H94.28v3.79Zm2-8.33v2.84h1.11a5.52,5.52,0,0,0,1.6-.15,1.34,1.34,0,0,0,.86-1.28,1.32,1.32,0,0,0-.32-.9,1.41,1.41,0,0,0-.82-.44,9,9,0,0,0-1.45-.07Z"/><path class="cls-1" d="M101.59,167.85v-10h3.25a11.9,11.9,0,0,1,2.41.15,2.66,2.66,0,0,1,1.44,1,3.13,3.13,0,0,1,.58,2,3.32,3.32,0,0,1-.33,1.55,2.78,2.78,0,0,1-.86,1,2.89,2.89,0,0,1-1,.47,11.15,11.15,0,0,1-2.09.14h-1.32v3.79Zm2-8.33v2.84h1.1a5.47,5.47,0,0,0,1.6-.15,1.39,1.39,0,0,0,.64-.5,1.35,1.35,0,0,0,.23-.78,1.28,1.28,0,0,0-.33-.9,1.35,1.35,0,0,0-.81-.44,9.11,9.11,0,0,0-1.46-.07Z"/><path class="cls-1" d="M110.93,167.85v-10h7.43v1.7H113v2.22h5v1.69h-5v2.73h5.6v1.69Z"/><path class="cls-1" d="M120.32,167.85v-9.94h2v8.25h5v1.69Z"/><path class="cls-1" d="M128.76,167.85v-10h2v10Z"/><path class="cls-1" d="M136.33,157.82h2v6.35a6.31,6.31,0,0,1-.22,1.91,2.75,2.75,0,0,1-1.06,1.41,3.59,3.59,0,0,1-2,.53,3,3,0,0,1-2.28-.83,3.42,3.42,0,0,1-.81-2.44l1.91-.22a2.76,2.76,0,0,0,.25,1.22,1.09,1.09,0,0,0,1,.54,1.11,1.11,0,0,0,1-.39,3.11,3.11,0,0,0,.28-1.6Z"/><path class="cls-1" d="M140.52,167.85v-10h2v4.45l4.09-4.45h2.72l-3.78,3.91,4,6.12h-2.62l-2.75-4.71-1.64,1.68v3Z"/><path class="cls-1" d="M150.61,167.85v-10H158v1.7h-5.41v2.22h5v1.69h-5v2.73h5.6v1.69Z"/><path class="cls-1" d="M28.48,181v-1.69h4.36v4A5.35,5.35,0,0,1,31,184.35a6.74,6.74,0,0,1-2.44.47,5.48,5.48,0,0,1-2.74-.66,4.19,4.19,0,0,1-1.76-1.89,6.14,6.14,0,0,1-.59-2.67,5.74,5.74,0,0,1,.66-2.78A4.45,4.45,0,0,1,26.05,175a5.2,5.2,0,0,1,2.4-.5,4.72,4.72,0,0,1,2.91.79,3.52,3.52,0,0,1,1.35,2.16l-2,.37a2.08,2.08,0,0,0-.79-1.16,2.38,2.38,0,0,0-1.46-.43,2.73,2.73,0,0,0-2.11.84,3.55,3.55,0,0,0-.78,2.5,3.89,3.89,0,0,0,.79,2.67,2.64,2.64,0,0,0,2.08.9,3.59,3.59,0,0,0,1.27-.25,4.43,4.43,0,0,0,1.1-.61V181Z"/><path class="cls-1" d="M34.71,184.64v-10h7.43v1.7H36.73v2.22h5v1.69h-5V183h5.6v1.68Z"/><path class="cls-1" d="M44.1,184.64v-9.93h2V183h5v1.68Z"/><path class="cls-1" d="M52.6,184.64v-10H60v1.7H54.62v2.22h5v1.69h-5V183h5.6v1.68Z"/><path class="cls-1" d="M64.19,184.64v-8.32h-3v-1.7h8v1.7h-3v8.32Z"/><path class="cls-1" d="M72.75,184.64v-8.32h-3v-1.7h8v1.7h-3v8.32Z"/><path class="cls-1" d="M79,184.64v-10h7.43v1.7h-5.4v2.22h5v1.69h-5V183h5.59v1.68Z"/><path class="cls-1" d="M88.39,184.64v-10h4.26a7.28,7.28,0,0,1,2.33.27,2.37,2.37,0,0,1,1.17,1,2.9,2.9,0,0,1,.43,1.58,2.7,2.7,0,0,1-.66,1.87,3.18,3.18,0,0,1-2,.92,5.06,5.06,0,0,1,1.08.84,11.09,11.09,0,0,1,1.15,1.63l1.23,1.95H95l-1.47-2.18A14.16,14.16,0,0,0,92.45,181a1.68,1.68,0,0,0-.61-.42,3.59,3.59,0,0,0-1-.11h-.41v4.18Zm2-5.78h1.5a8,8,0,0,0,1.82-.12,1,1,0,0,0,.56-.43,1.28,1.28,0,0,0,.21-.75,1.18,1.18,0,0,0-.27-.81,1.28,1.28,0,0,0-.76-.4c-.17,0-.66,0-1.48,0H90.41Z"/><path class="cls-1" d="M98.48,174.62h3.7a7.58,7.58,0,0,1,1.91.19,3.43,3.43,0,0,1,1.51.93,4.36,4.36,0,0,1,1,1.62,7.38,7.38,0,0,1,.32,2.37,6.71,6.71,0,0,1-.3,2.13,4.35,4.35,0,0,1-1.08,1.77,3.53,3.53,0,0,1-1.42.8,6.17,6.17,0,0,1-1.79.21H98.48Zm2,1.7V183H102a5.68,5.68,0,0,0,1.22-.1,1.83,1.83,0,0,0,.82-.42,2.14,2.14,0,0,0,.53-1,6.84,6.84,0,0,0,.2-1.84,6.22,6.22,0,0,0-.2-1.78,2.24,2.24,0,0,0-.58-1,1.93,1.93,0,0,0-.93-.48,9.83,9.83,0,0,0-1.66-.09Z"/><path class="cls-1" d="M108.61,184.64v-10h2v3.95h4v-3.95h2v10h-2v-4.38h-4v4.38Z"/><path class="cls-1" d="M118.71,184.64v-10h7.43v1.7h-5.41v2.22h5v1.69h-5V183h5.6v1.68Z"/><path class="cls-1" d="M128,184.64v-10h2v10Z"/><path class="cls-1" d="M131.93,174.62h3.7a7.63,7.63,0,0,1,1.91.19,3.49,3.49,0,0,1,1.51.93,4.21,4.21,0,0,1,.95,1.62,7.36,7.36,0,0,1,.33,2.37,6.71,6.71,0,0,1-.3,2.13,4.46,4.46,0,0,1-1.08,1.77,3.53,3.53,0,0,1-1.42.8,6.17,6.17,0,0,1-1.79.21h-3.81Zm2,1.7V183h1.52a5.68,5.68,0,0,0,1.22-.1,1.83,1.83,0,0,0,.82-.42,2.14,2.14,0,0,0,.53-1,6.84,6.84,0,0,0,.2-1.84,6.22,6.22,0,0,0-.2-1.78,2.24,2.24,0,0,0-.58-1,1.93,1.93,0,0,0-.93-.48,9.89,9.89,0,0,0-1.67-.09Z"/><circle class="cls-1" cx="81.92" cy="73.64" r="73.64"/><path class="cls-2" d="M72.76,50.45c-1,0-1.88,0-2.72,0-1.2,0-1.87-.64-1.88-1.62s.69-1.61,1.87-1.62c4,0,8,0,12,0H93.67c1,0,1.76.31,2,1.4A1.58,1.58,0,0,1,94,50.44c-.92.06-1.84,0-2.89,0,0,.52-.1.95-.1,1.37,0,6.4,0,12.79,0,19.18a10.2,10.2,0,0,0,.9,3.74c2.9,6.86,5.91,13.66,8.83,20.51,2.84,6.65,5.69,13.31,7.22,20.43.14.67.25,1.35.34,2,.57,4.31-1.13,7.48-4.86,9.61a29.53,29.53,0,0,1-11.92,3.4A81.1,81.1,0,0,1,70,130.37a35.87,35.87,0,0,1-8.56-2.53c-5.15-2.3-6.79-5.87-5.76-11.43a82.53,82.53,0,0,1,5.6-16.9c3.35-7.93,6.8-15.82,10.22-23.73a15.84,15.84,0,0,0,1.33-6.71c-.1-5.7,0-11.41,0-17.11ZM81.9,95.9c-4.81,0-9.62,0-14.43,0a1.43,1.43,0,0,0-1.62,1c-1.35,3.46-2.95,6.84-4.13,10.37a113.37,113.37,0,0,0-3,11.09c-.61,2.71.72,4.82,3.11,6a27.45,27.45,0,0,0,6.69,2.4,72,72,0,0,0,26.27.11,27.75,27.75,0,0,0,7.16-2.47c2.79-1.37,3.61-3.47,3.15-6.56-.13-.87-.28-1.75-.49-2.62C103.07,108.91,100.53,103,98,97a1.55,1.55,0,0,0-1.71-1.11C91.51,95.92,86.71,95.9,81.9,95.9Zm5.9-45.44c-3.59,0-7,0-10.37,0-1.1,0-1.45.26-1.44,1.4.05,6.11.09,12.22,0,18.33a16.24,16.24,0,0,1-1,5.31c-1.46,3.89-3.18,7.69-4.8,11.52-.77,1.81-1.58,3.6-2.42,5.53H96c-.22-.54-.37-.94-.54-1.34C93.28,86.09,91.08,81,88.92,75.91a15,15,0,0,1-1.14-6.15c.06-5.94,0-11.89,0-17.84Z"/><path class="cls-2" d="M77.62,33.57a6.2,6.2,0,1,1-6.09-6.27A6.21,6.21,0,0,1,77.62,33.57Zm-6.17-3a2.95,2.95,0,1,0,0,5.89,2.95,2.95,0,0,0,0-5.89Z"/><path class="cls-2" d="M87.58,45.43a5.22,5.22,0,0,1-5.23-5.36,5.27,5.27,0,1,1,5.23,5.36Zm2.07-5.22a2.06,2.06,0,0,0-2-2.11,2,2,0,0,0-2,1.95,2,2,0,0,0,2,2.13A2.09,2.09,0,0,0,89.65,40.21Z"/><path class="cls-2" d="M80.59,21.06a5,5,0,1,1,5,5A5,5,0,0,1,80.59,21.06Zm5-1.78a1.74,1.74,0,0,0-.09,3.48,1.75,1.75,0,0,0,1.82-1.69A1.77,1.77,0,0,0,85.6,19.28Z"/></svg>