<svg id="Layer_1" data-name="Layer 1" xmlns="http://www.w3.org/2000/svg" viewBox="0 0 166.4 183.45"><defs><style>.cls-1{fill:#009c9a;}.cls-2{fill:none;stroke:#fff;stroke-miterlimit:10;stroke-width:2.44px;}</style></defs><path class="cls-1" d="M.63,161.82l2-.19a2.44,2.44,0,0,0,.72,1.46,2.19,2.19,0,0,0,1.47.46,2.22,2.22,0,0,0,1.47-.41,1.25,1.25,0,0,0,.5-1,.91.91,0,0,0-.21-.6,1.69,1.69,0,0,0-.73-.44c-.24-.08-.78-.22-1.62-.43a5.5,5.5,0,0,1-2.28-1,2.62,2.62,0,0,1-.93-2,2.56,2.56,0,0,1,.44-1.43,2.7,2.7,0,0,1,1.25-1,5,5,0,0,1,2-.35,4.22,4.22,0,0,1,2.84.83,2.9,2.9,0,0,1,1,2.21l-2,.09a1.68,1.68,0,0,0-.56-1.11,2,2,0,0,0-1.28-.34,2.31,2.31,0,0,0-1.38.36.74.74,0,0,0-.32.62.77.77,0,0,0,.3.61,5.15,5.15,0,0,0,1.86.67,9.61,9.61,0,0,1,2.18.72,2.81,2.81,0,0,1,1.11,1A3,3,0,0,1,7,164.9a5.78,5.78,0,0,1-2.18.36,4.37,4.37,0,0,1-2.92-.87A3.87,3.87,0,0,1,.63,161.82Z"/><path class="cls-1" d="M10.07,160.14a6.46,6.46,0,0,1,.46-2.57,4.93,4.93,0,0,1,.93-1.38,4.11,4.11,0,0,1,1.3-.9,5.55,5.55,0,0,1,2.16-.4,4.67,4.67,0,0,1,3.54,1.38,6.14,6.14,0,0,1,0,7.62A4.65,4.65,0,0,1,15,165.26a4.73,4.73,0,0,1-3.56-1.37A5.17,5.17,0,0,1,10.07,160.14Zm2.09-.07a3.79,3.79,0,0,0,.78,2.58,2.59,2.59,0,0,0,2,.88,2.55,2.55,0,0,0,2-.87A3.9,3.9,0,0,0,17.7,160a3.79,3.79,0,0,0-.75-2.57,2.6,2.6,0,0,0-2-.85,2.59,2.59,0,0,0-2,.86A3.8,3.8,0,0,0,12.16,160.07Z"/><path class="cls-1" d="M27.78,161.4l2,.62a4.38,4.38,0,0,1-1.5,2.44,4.3,4.3,0,0,1-2.67.8,4.32,4.32,0,0,1-3.28-1.37A5.2,5.2,0,0,1,21,160.16a5.48,5.48,0,0,1,1.29-3.88,4.4,4.4,0,0,1,3.4-1.39,4.17,4.17,0,0,1,3,1.09,3.92,3.92,0,0,1,1,1.85l-2,.47a2.08,2.08,0,0,0-2.12-1.68,2.27,2.27,0,0,0-1.8.8,3.89,3.89,0,0,0-.7,2.59,4.18,4.18,0,0,0,.69,2.71,2.19,2.19,0,0,0,1.77.81A2,2,0,0,0,27,163,2.86,2.86,0,0,0,27.78,161.4Z"/><path class="cls-1" d="M31.42,165.09v-10h2v10Z"/><path class="cls-1" d="M44.41,165.09h-2.2l-.88-2.28h-4l-.83,2.28H34.35l3.91-10H40.4Zm-3.73-4L39.3,157.4,38,161.12Z"/><path class="cls-1" d="M45.54,165.09v-9.94h2v8.25h5v1.69Z"/><path class="cls-1" d="M66.19,165.09H64l-.88-2.28h-4l-.83,2.28H56.13l3.91-10h2.14Zm-3.73-4-1.38-3.72-1.35,3.72Z"/><path class="cls-1" d="M67.28,165.09v-10h2l4.1,6.7v-6.7h1.88v10h-2l-4-6.54v6.54Z"/><path class="cls-1" d="M77.37,155.06h3.69a7.06,7.06,0,0,1,1.91.2,3.33,3.33,0,0,1,1.51.92,4.36,4.36,0,0,1,1,1.62,7.36,7.36,0,0,1,.33,2.37,6.65,6.65,0,0,1-.31,2.13,4.44,4.44,0,0,1-1.07,1.77,3.52,3.52,0,0,1-1.43.8,6.08,6.08,0,0,1-1.79.22h-3.8Zm2,1.7v6.64H80.9a5.09,5.09,0,0,0,1.22-.1,1.83,1.83,0,0,0,.82-.42,2.05,2.05,0,0,0,.53-1,6.41,6.41,0,0,0,.21-1.84,5.82,5.82,0,0,0-.21-1.78,2.33,2.33,0,0,0-.57-1,1.87,1.87,0,0,0-.94-.47,8.51,8.51,0,0,0-1.66-.1Z"/><path class="cls-1" d="M97.78,161.4l2,.62a4.38,4.38,0,0,1-1.5,2.44,4.71,4.71,0,0,1-6-.57A5.2,5.2,0,0,1,91,160.16a5.48,5.48,0,0,1,1.29-3.88,4.4,4.4,0,0,1,3.4-1.39,4.17,4.17,0,0,1,3,1.09,3.92,3.92,0,0,1,1,1.85l-2,.47a2.08,2.08,0,0,0-2.12-1.68,2.27,2.27,0,0,0-1.8.8,3.89,3.89,0,0,0-.7,2.59,4.18,4.18,0,0,0,.69,2.71,2.19,2.19,0,0,0,1.77.81A2,2,0,0,0,97,163,2.86,2.86,0,0,0,97.78,161.4Z"/><path class="cls-1" d="M101.47,155.06h2v5.43a11.18,11.18,0,0,0,.08,1.68,1.54,1.54,0,0,0,.62,1,2.12,2.12,0,0,0,1.33.38,2.06,2.06,0,0,0,1.3-.35,1.44,1.44,0,0,0,.53-.87,11.11,11.11,0,0,0,.09-1.7v-5.55h2v5.27a13.61,13.61,0,0,1-.16,2.55,2.86,2.86,0,0,1-.61,1.26,3,3,0,0,1-1.18.81,5,5,0,0,1-1.93.31,5.54,5.54,0,0,1-2.17-.33,3.16,3.16,0,0,1-1.18-.87,2.78,2.78,0,0,1-.56-1.11,11.58,11.58,0,0,1-.2-2.54Z"/><path class="cls-1" d="M111.65,165.09v-9.94h2v8.25h5v1.69Z"/><path class="cls-1" d="M121.36,165.09v-8.33h-3v-1.7h8v1.7h-3v8.33Z"/><path class="cls-1" d="M127.64,155.06h2v5.43a11.7,11.7,0,0,0,.07,1.68,1.62,1.62,0,0,0,.62,1,2.16,2.16,0,0,0,1.34.38,2.1,2.1,0,0,0,1.3-.35,1.42,1.42,0,0,0,.52-.87,11.11,11.11,0,0,0,.09-1.7v-5.55h2v5.27a13.39,13.39,0,0,1-.17,2.55,3,3,0,0,1-.6,1.26,3.1,3.1,0,0,1-1.18.81,5,5,0,0,1-1.93.31,5.6,5.6,0,0,1-2.18-.33,3.2,3.2,0,0,1-1.17-.87,2.68,2.68,0,0,1-.57-1.11,12.24,12.24,0,0,1-.2-2.54Z"/><path class="cls-1" d="M137.77,165.09v-10H142a7.35,7.35,0,0,1,2.34.27,2.31,2.31,0,0,1,1.16,1,2.85,2.85,0,0,1,.44,1.58,2.69,2.69,0,0,1-.66,1.87,3.15,3.15,0,0,1-2,.92,5.32,5.32,0,0,1,1.08.84,11.92,11.92,0,0,1,1.15,1.63l1.22,2h-2.42l-1.46-2.18a14.74,14.74,0,0,0-1.06-1.48,1.76,1.76,0,0,0-.61-.42,3.59,3.59,0,0,0-1-.11h-.41v4.19Zm2-5.79h1.5a7.82,7.82,0,0,0,1.81-.12,1.1,1.1,0,0,0,.57-.42,1.33,1.33,0,0,0,.21-.76,1.18,1.18,0,0,0-.27-.81,1.28,1.28,0,0,0-.77-.4q-.24,0-1.47,0H139.8Z"/><path class="cls-1" d="M156.92,165.09h-2.21l-.87-2.28h-4l-.82,2.28h-2.15l3.9-10h2.14Zm-3.73-4-1.38-3.72-1.35,3.72Z"/><path class="cls-1" d="M158,165.09v-9.94h2v8.25h5v1.69Z"/><path class="cls-1" d="M50,181.89h-2.2l-.88-2.28h-4l-.83,2.28H39.91l3.9-10H46Zm-3.73-4-1.38-3.72-1.35,3.72Z"/><path class="cls-1" d="M51.69,181.89l-2.39-10h2.07l1.51,6.89,1.83-6.89h2.41l1.75,7,1.54-7h2l-2.43,10H57.87l-2-7.5-2,7.5Z"/><path class="cls-1" d="M71.75,181.89h-2.2l-.88-2.28h-4l-.82,2.28H61.69l3.9-10h2.14Zm-3.73-4-1.38-3.72-1.35,3.72Z"/><path class="cls-1" d="M72.83,181.89v-10h4.26a7.24,7.24,0,0,1,2.33.27,2.33,2.33,0,0,1,1.17,1,2.9,2.9,0,0,1,.43,1.58,2.69,2.69,0,0,1-.66,1.87,3.13,3.13,0,0,1-2,.92,5.06,5.06,0,0,1,1.08.84,11.09,11.09,0,0,1,1.15,1.63l1.23,2H79.42L78,179.7a15.45,15.45,0,0,0-1.06-1.47,1.68,1.68,0,0,0-.61-.42,3.55,3.55,0,0,0-1-.11h-.41v4.19Zm2-5.79h1.5a8,8,0,0,0,1.82-.12,1,1,0,0,0,.56-.42,1.33,1.33,0,0,0,.21-.76,1.18,1.18,0,0,0-.27-.81,1.28,1.28,0,0,0-.76-.4c-.17,0-.66,0-1.48,0H74.85Z"/><path class="cls-1" d="M82.93,181.89v-10h7.43v1.7H85v2.22h5v1.69H85v2.73h5.6v1.69Z"/><path class="cls-1" d="M92.29,181.89v-10h2l4.1,6.7v-6.7h1.88v10h-2l-4-6.54v6.54Z"/><path class="cls-1" d="M102.38,181.89v-10h7.43v1.7H104.4v2.22h5v1.69h-5v2.73H110v1.69Z"/><path class="cls-1" d="M111.2,178.62l2-.19a2.44,2.44,0,0,0,.72,1.46,2.19,2.19,0,0,0,1.47.46,2.22,2.22,0,0,0,1.47-.41,1.25,1.25,0,0,0,.5-1,.9.9,0,0,0-.21-.6,1.69,1.69,0,0,0-.73-.44c-.23-.08-.78-.22-1.62-.43a5.57,5.57,0,0,1-2.28-1,2.61,2.61,0,0,1-.92-2,2.55,2.55,0,0,1,.43-1.43,2.7,2.7,0,0,1,1.25-1,5.07,5.07,0,0,1,2-.35,4.22,4.22,0,0,1,2.84.83,2.9,2.9,0,0,1,1,2.21l-2,.09a1.68,1.68,0,0,0-.56-1.11,2,2,0,0,0-1.28-.34,2.31,2.31,0,0,0-1.38.36.74.74,0,0,0-.32.62.77.77,0,0,0,.3.61,5.23,5.23,0,0,0,1.86.67,9.91,9.91,0,0,1,2.19.72,2.78,2.78,0,0,1,1.1,1,3,3,0,0,1-1.43,4.33,5.74,5.74,0,0,1-2.18.36,4.32,4.32,0,0,1-2.92-.88A3.82,3.82,0,0,1,111.2,178.62Z"/><path class="cls-1" d="M120.54,178.62l2-.19a2.44,2.44,0,0,0,.72,1.46,2.18,2.18,0,0,0,1.47.46,2.22,2.22,0,0,0,1.47-.41,1.25,1.25,0,0,0,.5-1,.9.9,0,0,0-.21-.6,1.69,1.69,0,0,0-.73-.44c-.24-.08-.78-.22-1.62-.43a5.44,5.44,0,0,1-2.28-1,2.62,2.62,0,0,1-.93-2,2.56,2.56,0,0,1,.44-1.43,2.65,2.65,0,0,1,1.25-1,5,5,0,0,1,2-.35,4.22,4.22,0,0,1,2.84.83,2.9,2.9,0,0,1,1,2.21l-2,.09a1.68,1.68,0,0,0-.56-1.11,2,2,0,0,0-1.28-.34,2.31,2.31,0,0,0-1.38.36.72.72,0,0,0-.32.62.77.77,0,0,0,.3.61,5.07,5.07,0,0,0,1.86.67,9.61,9.61,0,0,1,2.18.72,2.88,2.88,0,0,1,1.11,1,3,3,0,0,1-1.43,4.33,5.78,5.78,0,0,1-2.18.36,4.32,4.32,0,0,1-2.92-.88A3.78,3.78,0,0,1,120.54,178.62Z"/><circle class="cls-1" cx="84.64" cy="73.64" r="73.64"/><path class="cls-2" d="M77.26,43.67H91.72A6.34,6.34,0,0,1,98.06,50v9.83a.17.17,0,0,1-.17.17h-26a1,1,0,0,1-1-1V50A6.34,6.34,0,0,1,77.26,43.67Z"/><circle class="cls-2" cx="84.49" cy="29.85" r="9.2"/><path class="cls-2" d="M48.16,92.31H62.62A6.34,6.34,0,0,1,69,98.65v9.83a.17.17,0,0,1-.17.17h-26a1,1,0,0,1-1-1v-9A6.34,6.34,0,0,1,48.16,92.31Z"/><circle class="cls-2" cx="55.39" cy="78.49" r="9.2"/><path class="cls-2" d="M104.4,92.31h14.46a6.34,6.34,0,0,1,6.34,6.34v9.83a.17.17,0,0,1-.17.17H99a1,1,0,0,1-1-1v-9A6.34,6.34,0,0,1,104.4,92.31Z"/><circle class="cls-2" cx="111.63" cy="78.49" r="9.2"/><path class="cls-2" d="M41.43,86.33A44.84,44.84,0,0,1,70.92,31.9"/><path class="cls-2" d="M103.81,115a44.85,44.85,0,0,1-42.17-2"/><path class="cls-2" d="M98.06,31.8a44.83,44.83,0,0,1,29,57.17"/></svg>