<svg id="Layer_1" data-name="Layer 1" xmlns="http://www.w3.org/2000/svg" viewBox="0 0 164.08 187.46"><defs><style>.cls-1{fill:#009c9a;}.cls-2{fill:none;stroke:#fff;stroke-miterlimit:10;stroke-width:2.44px;}</style></defs><path class="cls-1" d="M.25,164.58l2-.19a2.39,2.39,0,0,0,.73,1.46,2.17,2.17,0,0,0,1.46.46,2.22,2.22,0,0,0,1.47-.41,1.22,1.22,0,0,0,.5-1,.9.9,0,0,0-.21-.6,1.69,1.69,0,0,0-.73-.44c-.23-.08-.77-.22-1.62-.43a5.57,5.57,0,0,1-2.28-1,2.61,2.61,0,0,1-.92-2A2.55,2.55,0,0,1,1,159a2.7,2.7,0,0,1,1.25-1,5.1,5.1,0,0,1,2-.35,4.27,4.27,0,0,1,2.85.83,2.93,2.93,0,0,1,1,2.21l-2,.09a1.68,1.68,0,0,0-.55-1.11,2,2,0,0,0-1.28-.34,2.36,2.36,0,0,0-1.39.36.73.73,0,0,0-.32.62.77.77,0,0,0,.3.61,5.44,5.44,0,0,0,1.86.67,9.73,9.73,0,0,1,2.19.72,2.78,2.78,0,0,1,1.1,1,3.15,3.15,0,0,1-.08,3.21,2.83,2.83,0,0,1-1.35,1.12,5.74,5.74,0,0,1-2.18.36,4.32,4.32,0,0,1-2.92-.88A3.77,3.77,0,0,1,.25,164.58Z"/><path class="cls-1" d="M9.69,162.9a6.43,6.43,0,0,1,.45-2.57,4.76,4.76,0,0,1,.94-1.38,3.82,3.82,0,0,1,1.29-.9,5.44,5.44,0,0,1,2.16-.4A4.71,4.71,0,0,1,18.08,159a6.14,6.14,0,0,1,0,7.62A4.69,4.69,0,0,1,14.56,168,4.73,4.73,0,0,1,11,166.65,5.21,5.21,0,0,1,9.69,162.9Zm2.08-.07a3.74,3.74,0,0,0,.79,2.58,2.57,2.57,0,0,0,2,.88,2.53,2.53,0,0,0,2-.88,4.74,4.74,0,0,0,0-5.18,2.54,2.54,0,0,0-2-.85,2.57,2.57,0,0,0-2,.86A3.78,3.78,0,0,0,11.77,162.83Z"/><path class="cls-1" d="M27.4,164.16l2,.62a4.38,4.38,0,0,1-1.5,2.44,4.29,4.29,0,0,1-2.66.8,4.34,4.34,0,0,1-3.29-1.37,5.24,5.24,0,0,1-1.28-3.73A5.48,5.48,0,0,1,21.92,159a4.42,4.42,0,0,1,3.4-1.39,4.15,4.15,0,0,1,3,1.09,4,4,0,0,1,1,1.85l-2,.47a2.06,2.06,0,0,0-2.11-1.68,2.28,2.28,0,0,0-1.81.8,4,4,0,0,0-.69,2.59,4.19,4.19,0,0,0,.68,2.71,2.21,2.21,0,0,0,1.78.81,2,2,0,0,0,1.38-.52A3,3,0,0,0,27.4,164.16Z"/><path class="cls-1" d="M31,167.85v-10h2v10Z"/><path class="cls-1" d="M44,167.85h-2.2L41,165.57h-4l-.83,2.28H34l3.9-10H40Zm-3.72-4-1.38-3.72-1.36,3.72Z"/><path class="cls-1" d="M54.13,167.85h-2.2l-.87-2.28h-4l-.83,2.28H44.08l3.9-10h2.14Zm-3.72-4L49,160.16l-1.36,3.72Z"/><path class="cls-1" d="M55.26,167.85v-9.94h2v8.25h5v1.69Z"/><path class="cls-1" d="M76.26,166.62,75.1,168.1A6.65,6.65,0,0,1,73.46,167a4.24,4.24,0,0,1-1.29.8,4.46,4.46,0,0,1-1.63.26A3.6,3.6,0,0,1,67.72,167,2.75,2.75,0,0,1,67,165.1a2.8,2.8,0,0,1,.58-1.74A4.69,4.69,0,0,1,69.28,162a5.4,5.4,0,0,1-.77-1.16,2.53,2.53,0,0,1-.26-1,2,2,0,0,1,.73-1.55,3,3,0,0,1,2.07-.63,2.87,2.87,0,0,1,2,.67,2.09,2.09,0,0,1,.73,1.62,2.05,2.05,0,0,1-.36,1.15A4.83,4.83,0,0,1,72,162.33l1.39,1.84a4.62,4.62,0,0,0,.43-1.14l1.73.39a9.41,9.41,0,0,1-.45,1.35,3.42,3.42,0,0,1-.41.72,8.59,8.59,0,0,0,.83.66A6.27,6.27,0,0,0,76.26,166.62Zm-6-3.36a2.62,2.62,0,0,0-1,.8,1.69,1.69,0,0,0-.33,1,1.35,1.35,0,0,0,.41,1,1.46,1.46,0,0,0,1.09.4,2.19,2.19,0,0,0,.87-.18,4.19,4.19,0,0,0,.91-.59Zm.75-2.09.52-.39a1.22,1.22,0,0,0,.58-.89.84.84,0,0,0-.28-.62,1,1,0,0,0-.75-.26,1,1,0,0,0-.72.23.68.68,0,0,0-.26.52,1.48,1.48,0,0,0,.44.87Z"/><path class="cls-1" d="M87.81,164.16l2,.62a4.38,4.38,0,0,1-1.5,2.44,4.7,4.7,0,0,1-5.94-.57A5.21,5.21,0,0,1,81,162.92,5.48,5.48,0,0,1,82.33,159a4.42,4.42,0,0,1,3.4-1.39,4.17,4.17,0,0,1,3,1.09,4,4,0,0,1,1,1.85l-2,.47a2.06,2.06,0,0,0-2.11-1.68,2.28,2.28,0,0,0-1.81.8,4,4,0,0,0-.7,2.59,4.18,4.18,0,0,0,.69,2.71,2.21,2.21,0,0,0,1.77.81,2,2,0,0,0,1.39-.52A3,3,0,0,0,87.81,164.16Z"/><path class="cls-1" d="M91.49,157.82h2v5.43a11.18,11.18,0,0,0,.08,1.68,1.58,1.58,0,0,0,.62,1,2.14,2.14,0,0,0,1.34.38,2,2,0,0,0,1.29-.36,1.35,1.35,0,0,0,.53-.86,11.11,11.11,0,0,0,.09-1.7v-5.55h2v5.27a13.61,13.61,0,0,1-.16,2.55,2.77,2.77,0,0,1-.61,1.25,2.87,2.87,0,0,1-1.18.82,5.13,5.13,0,0,1-1.92.31,5.36,5.36,0,0,1-2.18-.34,2.93,2.93,0,0,1-1.17-.86,2.68,2.68,0,0,1-.57-1.11,12.24,12.24,0,0,1-.2-2.54Z"/><path class="cls-1" d="M101.67,167.85v-9.94h2v8.25h5v1.69Z"/><path class="cls-1" d="M111.38,167.85v-8.33h-3v-1.7h8v1.7h-3v8.33Z"/><path class="cls-1" d="M117.67,157.82h2v5.43a11.7,11.7,0,0,0,.07,1.68,1.62,1.62,0,0,0,.62,1,2.18,2.18,0,0,0,1.34.38,2,2,0,0,0,1.3-.36,1.39,1.39,0,0,0,.53-.86,13.07,13.07,0,0,0,.08-1.7v-5.55h2v5.27a13.39,13.39,0,0,1-.17,2.55,2.86,2.86,0,0,1-.6,1.25,3,3,0,0,1-1.18.82,5.15,5.15,0,0,1-1.93.31,5.42,5.42,0,0,1-2.18-.34,3.08,3.08,0,0,1-1.17-.86,2.94,2.94,0,0,1-.57-1.11,12.39,12.39,0,0,1-.19-2.54Z"/><path class="cls-1" d="M127.8,167.85v-10h4.26a7.24,7.24,0,0,1,2.33.27,2.33,2.33,0,0,1,1.17,1,2.9,2.9,0,0,1,.43,1.58,2.69,2.69,0,0,1-.66,1.87,3.18,3.18,0,0,1-2,.92,4.82,4.82,0,0,1,1.08.84,11.09,11.09,0,0,1,1.15,1.63l1.23,2h-2.42l-1.47-2.19a13.77,13.77,0,0,0-1.06-1.47,1.68,1.68,0,0,0-.61-.42,3.5,3.5,0,0,0-1-.11h-.41v4.19Zm2-5.79h1.5a8,8,0,0,0,1.82-.12,1,1,0,0,0,.56-.43,1.28,1.28,0,0,0,.21-.75,1.18,1.18,0,0,0-.27-.81,1.28,1.28,0,0,0-.76-.4c-.17,0-.66,0-1.48,0h-1.58Z"/><path class="cls-1" d="M137.9,167.85v-10h7.43v1.7h-5.41v2.22h5v1.69h-5v2.73h5.6v1.69Z"/><path class="cls-1" d="M147.24,167.85v-10h7.43v1.7h-5.41v2.22h5v1.69h-5v2.73h5.6v1.69Z"/><path class="cls-1" d="M156.63,167.85v-9.94h2v8.25h5v1.69Z"/><path class="cls-1" d="M39.27,174.62h4a12.42,12.42,0,0,1,1.78.1,2.59,2.59,0,0,1,1,.42,2.46,2.46,0,0,1,.77.83,2.24,2.24,0,0,1,.31,1.18,2.37,2.37,0,0,1-1.41,2.17,2.66,2.66,0,0,1,1.41.91,2.4,2.4,0,0,1,.49,1.51,2.86,2.86,0,0,1-.32,1.33,2.72,2.72,0,0,1-.86,1,2.87,2.87,0,0,1-1.36.48c-.34,0-1.15.06-2.44.06H39.27Zm2,1.67v2.32h1.33a14.12,14.12,0,0,0,1.47,0,1.41,1.41,0,0,0,.82-.35,1.1,1.1,0,0,0,.29-.79,1.08,1.08,0,0,0-.25-.75,1.16,1.16,0,0,0-.77-.35c-.2,0-.77,0-1.73,0Zm0,4V183h1.87a7.69,7.69,0,0,0,1.39-.07,1.17,1.17,0,0,0,1-1.25,1.26,1.26,0,0,0-.22-.76,1.21,1.21,0,0,0-.63-.46,6.72,6.72,0,0,0-1.79-.14Z"/><path class="cls-1" d="M49.37,184.64v-10H56.8v1.7H51.4v2.22h5v1.69h-5V183H57v1.68Z"/><path class="cls-1" d="M60.13,184.64l-2.39-10h2.07l1.51,6.89,1.83-6.89h2.41l1.76,7,1.53-7h2l-2.43,10H66.31l-2-7.49-2,7.49Z"/><path class="cls-1" d="M71.91,174.62h2v5.43a11.18,11.18,0,0,0,.08,1.68,1.54,1.54,0,0,0,.62,1,2.12,2.12,0,0,0,1.33.38,2,2,0,0,0,1.3-.36,1.39,1.39,0,0,0,.53-.86,11.11,11.11,0,0,0,.09-1.7v-5.55h2v5.27a13.61,13.61,0,0,1-.16,2.55,2.77,2.77,0,0,1-.61,1.25,2.87,2.87,0,0,1-1.18.82,5.13,5.13,0,0,1-1.92.31,5.36,5.36,0,0,1-2.18-.34,2.93,2.93,0,0,1-1.17-.86,2.68,2.68,0,0,1-.57-1.11,12.24,12.24,0,0,1-.2-2.54Z"/><path class="cls-1" d="M81.52,181.38l2-.19a2.44,2.44,0,0,0,.72,1.46,2.18,2.18,0,0,0,1.47.46,2.22,2.22,0,0,0,1.47-.41,1.25,1.25,0,0,0,.5-1,.9.9,0,0,0-.21-.6,1.69,1.69,0,0,0-.73-.44c-.24-.08-.78-.22-1.62-.43a5.31,5.31,0,0,1-2.28-1,2.59,2.59,0,0,1-.93-2,2.56,2.56,0,0,1,.44-1.43,2.65,2.65,0,0,1,1.25-1,5,5,0,0,1,2-.35,4.22,4.22,0,0,1,2.84.83,2.9,2.9,0,0,1,1,2.21l-2,.09a1.68,1.68,0,0,0-.56-1.11,2,2,0,0,0-1.28-.34,2.31,2.31,0,0,0-1.38.36.71.71,0,0,0-.32.62.77.77,0,0,0,.3.61,5.27,5.27,0,0,0,1.86.67,9.61,9.61,0,0,1,2.18.72,2.88,2.88,0,0,1,1.11,1,3,3,0,0,1-1.43,4.33,5.78,5.78,0,0,1-2.18.36,4.32,4.32,0,0,1-2.92-.88A3.78,3.78,0,0,1,81.52,181.38Z"/><path class="cls-1" d="M93.63,184.64v-8.32h-3v-1.7h8v1.7h-3v8.32Z"/><path class="cls-1" d="M99.06,184.64v-1.82l5.26-6.5H99.65v-1.7H107v1.58L101.5,183h5.7v1.68Z"/><path class="cls-1" d="M108.41,184.64v-10h2v10Z"/><path class="cls-1" d="M116,174.62h2V181a6.65,6.65,0,0,1-.22,1.91,2.76,2.76,0,0,1-1.07,1.41,3.53,3.53,0,0,1-2,.53,3.06,3.06,0,0,1-2.29-.83,3.41,3.41,0,0,1-.8-2.44l1.9-.22a2.73,2.73,0,0,0,.26,1.22,1.07,1.07,0,0,0,1,.54,1.1,1.1,0,0,0,1-.39,3,3,0,0,0,.28-1.6Z"/><path class="cls-1" d="M120.17,184.64v-10h2l4.1,6.7v-6.7h1.88v10h-2l-4-6.53v6.53Z"/><circle class="cls-1" cx="83.74" cy="73.64" r="73.64"/><path class="cls-2" d="M76.36,43.67H90.82A6.34,6.34,0,0,1,97.16,50v9.83A.17.17,0,0,1,97,60H71a1,1,0,0,1-1-1V50A6.34,6.34,0,0,1,76.36,43.67Z"/><circle class="cls-2" cx="83.59" cy="29.85" r="9.2"/><path class="cls-2" d="M47.26,92.31H61.72a6.34,6.34,0,0,1,6.34,6.34v9.83a.17.17,0,0,1-.17.17h-26a1,1,0,0,1-1-1v-9A6.34,6.34,0,0,1,47.26,92.31Z"/><circle class="cls-2" cx="54.49" cy="78.49" r="9.2"/><path class="cls-2" d="M103.5,92.31H118a6.34,6.34,0,0,1,6.34,6.34v9.83a.17.17,0,0,1-.17.17h-26a1,1,0,0,1-1-1v-9A6.34,6.34,0,0,1,103.5,92.31Z"/><circle class="cls-2" cx="110.73" cy="78.49" r="9.2"/><path class="cls-2" d="M40.53,86.33A44.84,44.84,0,0,1,70,31.9"/><path class="cls-2" d="M102.91,115a44.85,44.85,0,0,1-42.17-2"/><path class="cls-2" d="M97.16,31.8a44.83,44.83,0,0,1,29,57.17"/></svg>